<?xml version="1.0" encoding="utf-8" standalone="no"?>
<!DOCTYPE svg PUBLIC "-//W3C//DTD SVG 1.1//EN"
  "http://www.w3.org/Graphics/SVG/1.1/DTD/svg11.dtd">
<svg height="310.86825pt" version="1.1" viewBox="0 0 408.10125 310.86825" width="408.10125pt" xmlns="http://www.w3.org/2000/svg" xmlns:xlink="http://www.w3.org/1999/xlink">
 <metadata>
  <rdf:RDF xmlns:cc="http://creativecommons.org/ns#" xmlns:dc="http://purl.org/dc/elements/1.1/" xmlns:rdf="http://www.w3.org/1999/02/22-rdf-syntax-ns#">
   <cc:Work>
    <dc:type rdf:resource="http://purl.org/dc/dcmitype/StillImage"/>
    <dc:date>2021-06-27T00:25:13.071699</dc:date>
    <dc:format>image/svg+xml</dc:format>
    <dc:creator>
     <cc:Agent>
      <dc:title>Matplotlib v3.4.2, https://matplotlib.org/</dc:title>
     </cc:Agent>
    </dc:creator>
   </cc:Work>
  </rdf:RDF>
 </metadata>
 <defs>
  <style type="text/css">*{stroke-linecap:butt;stroke-linejoin:round;}</style>
 </defs>
 <g id="figure_1">
  <g id="patch_1">
   <path d="M 0 310.86825 
L 408.10125 310.86825 
L 408.10125 0 
L 0 0 
z
" style="fill:#ffffff;"/>
  </g>
  <g id="axes_1">
   <g id="patch_2">
    <path d="M 43.78125 273.312 
L 400.90125 273.312 
L 400.90125 7.2 
L 43.78125 7.2 
z
" style="fill:#ffffff;"/>
   </g>
   <g id="patch_3">
    <path clip-path="url(#pa940c7251c)" d="M 61.442351 273.312 
L 63.058463 273.312 
L 63.058463 272.157376 
L 61.442351 272.157376 
z
" style="fill:#1f77b4;"/>
   </g>
   <g id="patch_4">
    <path clip-path="url(#pa940c7251c)" d="M 63.058463 273.312 
L 64.674574 273.312 
L 64.674574 270.42544 
L 63.058463 270.42544 
z
" style="fill:#1f77b4;"/>
   </g>
   <g id="patch_5">
    <path clip-path="url(#pa940c7251c)" d="M 64.674574 273.312 
L 66.290686 273.312 
L 66.290686 270.42544 
L 64.674574 270.42544 
z
" style="fill:#1f77b4;"/>
   </g>
   <g id="patch_6">
    <path clip-path="url(#pa940c7251c)" d="M 66.290686 273.312 
L 67.906798 273.312 
L 67.906798 269.848128 
L 66.290686 269.848128 
z
" style="fill:#1f77b4;"/>
   </g>
   <g id="patch_7">
    <path clip-path="url(#pa940c7251c)" d="M 67.906798 273.312 
L 69.522909 273.312 
L 69.522909 264.075007 
L 67.906798 264.075007 
z
" style="fill:#1f77b4;"/>
   </g>
   <g id="patch_8">
    <path clip-path="url(#pa940c7251c)" d="M 69.522909 273.312 
L 71.139021 273.312 
L 71.139021 262.343071 
L 69.522909 262.343071 
z
" style="fill:#1f77b4;"/>
   </g>
   <g id="patch_9">
    <path clip-path="url(#pa940c7251c)" d="M 71.139021 273.312 
L 72.755133 273.312 
L 72.755133 264.652319 
L 71.139021 264.652319 
z
" style="fill:#1f77b4;"/>
   </g>
   <g id="patch_10">
    <path clip-path="url(#pa940c7251c)" d="M 72.755133 273.312 
L 74.371244 273.312 
L 74.371244 267.538879 
L 72.755133 267.538879 
z
" style="fill:#1f77b4;"/>
   </g>
   <g id="patch_11">
    <path clip-path="url(#pa940c7251c)" d="M 74.371244 273.312 
L 75.987356 273.312 
L 75.987356 266.384255 
L 74.371244 266.384255 
z
" style="fill:#1f77b4;"/>
   </g>
   <g id="patch_12">
    <path clip-path="url(#pa940c7251c)" d="M 75.987356 273.312 
L 77.603468 273.312 
L 77.603468 259.45651 
L 75.987356 259.45651 
z
" style="fill:#1f77b4;"/>
   </g>
   <g id="patch_13">
    <path clip-path="url(#pa940c7251c)" d="M 77.603468 273.312 
L 79.219579 273.312 
L 79.219579 256.56995 
L 77.603468 256.56995 
z
" style="fill:#1f77b4;"/>
   </g>
   <g id="patch_14">
    <path clip-path="url(#pa940c7251c)" d="M 79.219579 273.312 
L 80.835691 273.312 
L 80.835691 256.56995 
L 79.219579 256.56995 
z
" style="fill:#1f77b4;"/>
   </g>
   <g id="patch_15">
    <path clip-path="url(#pa940c7251c)" d="M 80.835691 273.312 
L 82.451803 273.312 
L 82.451803 260.611134 
L 80.835691 260.611134 
z
" style="fill:#1f77b4;"/>
   </g>
   <g id="patch_16">
    <path clip-path="url(#pa940c7251c)" d="M 82.451803 273.312 
L 84.067914 273.312 
L 84.067914 254.260702 
L 82.451803 254.260702 
z
" style="fill:#1f77b4;"/>
   </g>
   <g id="patch_17">
    <path clip-path="url(#pa940c7251c)" d="M 84.067914 273.312 
L 85.684026 273.312 
L 85.684026 258.879198 
L 84.067914 258.879198 
z
" style="fill:#1f77b4;"/>
   </g>
   <g id="patch_18">
    <path clip-path="url(#pa940c7251c)" d="M 85.684026 273.312 
L 87.300138 273.312 
L 87.300138 252.528765 
L 85.684026 252.528765 
z
" style="fill:#1f77b4;"/>
   </g>
   <g id="patch_19">
    <path clip-path="url(#pa940c7251c)" d="M 87.300138 273.312 
L 88.916249 273.312 
L 88.916249 255.415326 
L 87.300138 255.415326 
z
" style="fill:#1f77b4;"/>
   </g>
   <g id="patch_20">
    <path clip-path="url(#pa940c7251c)" d="M 88.916249 273.312 
L 90.532361 273.312 
L 90.532361 251.951453 
L 88.916249 251.951453 
z
" style="fill:#1f77b4;"/>
   </g>
   <g id="patch_21">
    <path clip-path="url(#pa940c7251c)" d="M 90.532361 273.312 
L 92.148473 273.312 
L 92.148473 246.178333 
L 90.532361 246.178333 
z
" style="fill:#1f77b4;"/>
   </g>
   <g id="patch_22">
    <path clip-path="url(#pa940c7251c)" d="M 92.148473 273.312 
L 93.764584 273.312 
L 93.764584 244.446396 
L 92.148473 244.446396 
z
" style="fill:#1f77b4;"/>
   </g>
   <g id="patch_23">
    <path clip-path="url(#pa940c7251c)" d="M 93.764584 273.312 
L 95.380696 273.312 
L 95.380696 245.023708 
L 93.764584 245.023708 
z
" style="fill:#1f77b4;"/>
   </g>
   <g id="patch_24">
    <path clip-path="url(#pa940c7251c)" d="M 95.380696 273.312 
L 96.996808 273.312 
L 96.996808 245.601021 
L 95.380696 245.601021 
z
" style="fill:#1f77b4;"/>
   </g>
   <g id="patch_25">
    <path clip-path="url(#pa940c7251c)" d="M 96.996808 273.312 
L 98.612919 273.312 
L 98.612919 250.219517 
L 96.996808 250.219517 
z
" style="fill:#1f77b4;"/>
   </g>
   <g id="patch_26">
    <path clip-path="url(#pa940c7251c)" d="M 98.612919 273.312 
L 100.229031 273.312 
L 100.229031 253.68339 
L 98.612919 253.68339 
z
" style="fill:#1f77b4;"/>
   </g>
   <g id="patch_27">
    <path clip-path="url(#pa940c7251c)" d="M 100.229031 273.312 
L 101.845142 273.312 
L 101.845142 239.8279 
L 100.229031 239.8279 
z
" style="fill:#1f77b4;"/>
   </g>
   <g id="patch_28">
    <path clip-path="url(#pa940c7251c)" d="M 101.845142 273.312 
L 103.461254 273.312 
L 103.461254 236.941339 
L 101.845142 236.941339 
z
" style="fill:#1f77b4;"/>
   </g>
   <g id="patch_29">
    <path clip-path="url(#pa940c7251c)" d="M 103.461254 273.312 
L 105.077366 273.312 
L 105.077366 242.137148 
L 103.461254 242.137148 
z
" style="fill:#1f77b4;"/>
   </g>
   <g id="patch_30">
    <path clip-path="url(#pa940c7251c)" d="M 105.077366 273.312 
L 106.693477 273.312 
L 106.693477 243.291772 
L 105.077366 243.291772 
z
" style="fill:#1f77b4;"/>
   </g>
   <g id="patch_31">
    <path clip-path="url(#pa940c7251c)" d="M 106.693477 273.312 
L 108.309589 273.312 
L 108.309589 236.941339 
L 106.693477 236.941339 
z
" style="fill:#1f77b4;"/>
   </g>
   <g id="patch_32">
    <path clip-path="url(#pa940c7251c)" d="M 108.309589 273.312 
L 109.925701 273.312 
L 109.925701 246.178333 
L 108.309589 246.178333 
z
" style="fill:#1f77b4;"/>
   </g>
   <g id="patch_33">
    <path clip-path="url(#pa940c7251c)" d="M 109.925701 273.312 
L 111.541812 273.312 
L 111.541812 236.941339 
L 109.925701 236.941339 
z
" style="fill:#1f77b4;"/>
   </g>
   <g id="patch_34">
    <path clip-path="url(#pa940c7251c)" d="M 111.541812 273.312 
L 113.157924 273.312 
L 113.157924 242.137148 
L 111.541812 242.137148 
z
" style="fill:#1f77b4;"/>
   </g>
   <g id="patch_35">
    <path clip-path="url(#pa940c7251c)" d="M 113.157924 273.312 
L 114.774036 273.312 
L 114.774036 240.405212 
L 113.157924 240.405212 
z
" style="fill:#1f77b4;"/>
   </g>
   <g id="patch_36">
    <path clip-path="url(#pa940c7251c)" d="M 114.774036 273.312 
L 116.390147 273.312 
L 116.390147 229.436282 
L 114.774036 229.436282 
z
" style="fill:#1f77b4;"/>
   </g>
   <g id="patch_37">
    <path clip-path="url(#pa940c7251c)" d="M 116.390147 273.312 
L 118.006259 273.312 
L 118.006259 240.982524 
L 116.390147 240.982524 
z
" style="fill:#1f77b4;"/>
   </g>
   <g id="patch_38">
    <path clip-path="url(#pa940c7251c)" d="M 118.006259 273.312 
L 119.622371 273.312 
L 119.622371 229.436282 
L 118.006259 229.436282 
z
" style="fill:#1f77b4;"/>
   </g>
   <g id="patch_39">
    <path clip-path="url(#pa940c7251c)" d="M 119.622371 273.312 
L 121.238482 273.312 
L 121.238482 229.436282 
L 119.622371 229.436282 
z
" style="fill:#1f77b4;"/>
   </g>
   <g id="patch_40">
    <path clip-path="url(#pa940c7251c)" d="M 121.238482 273.312 
L 122.854594 273.312 
L 122.854594 224.240474 
L 121.238482 224.240474 
z
" style="fill:#1f77b4;"/>
   </g>
   <g id="patch_41">
    <path clip-path="url(#pa940c7251c)" d="M 122.854594 273.312 
L 124.470706 273.312 
L 124.470706 241.559836 
L 122.854594 241.559836 
z
" style="fill:#1f77b4;"/>
   </g>
   <g id="patch_42">
    <path clip-path="url(#pa940c7251c)" d="M 124.470706 273.312 
L 126.086817 273.312 
L 126.086817 223.663162 
L 124.470706 223.663162 
z
" style="fill:#1f77b4;"/>
   </g>
   <g id="patch_43">
    <path clip-path="url(#pa940c7251c)" d="M 126.086817 273.312 
L 127.702929 273.312 
L 127.702929 217.312729 
L 126.086817 217.312729 
z
" style="fill:#1f77b4;"/>
   </g>
   <g id="patch_44">
    <path clip-path="url(#pa940c7251c)" d="M 127.702929 273.312 
L 129.319041 273.312 
L 129.319041 219.621977 
L 127.702929 219.621977 
z
" style="fill:#1f77b4;"/>
   </g>
   <g id="patch_45">
    <path clip-path="url(#pa940c7251c)" d="M 129.319041 273.312 
L 130.935152 273.312 
L 130.935152 227.127034 
L 129.319041 227.127034 
z
" style="fill:#1f77b4;"/>
   </g>
   <g id="patch_46">
    <path clip-path="url(#pa940c7251c)" d="M 130.935152 273.312 
L 132.551264 273.312 
L 132.551264 227.127034 
L 130.935152 227.127034 
z
" style="fill:#1f77b4;"/>
   </g>
   <g id="patch_47">
    <path clip-path="url(#pa940c7251c)" d="M 132.551264 273.312 
L 134.167376 273.312 
L 134.167376 225.395098 
L 132.551264 225.395098 
z
" style="fill:#1f77b4;"/>
   </g>
   <g id="patch_48">
    <path clip-path="url(#pa940c7251c)" d="M 134.167376 273.312 
L 135.783487 273.312 
L 135.783487 222.508538 
L 134.167376 222.508538 
z
" style="fill:#1f77b4;"/>
   </g>
   <g id="patch_49">
    <path clip-path="url(#pa940c7251c)" d="M 135.783487 273.312 
L 137.399599 273.312 
L 137.399599 219.621977 
L 135.783487 219.621977 
z
" style="fill:#1f77b4;"/>
   </g>
   <g id="patch_50">
    <path clip-path="url(#pa940c7251c)" d="M 137.399599 273.312 
L 139.015711 273.312 
L 139.015711 208.653048 
L 137.399599 208.653048 
z
" style="fill:#1f77b4;"/>
   </g>
   <g id="patch_51">
    <path clip-path="url(#pa940c7251c)" d="M 139.015711 273.312 
L 140.631822 273.312 
L 140.631822 221.353913 
L 139.015711 221.353913 
z
" style="fill:#1f77b4;"/>
   </g>
   <g id="patch_52">
    <path clip-path="url(#pa940c7251c)" d="M 140.631822 273.312 
L 142.247934 273.312 
L 142.247934 209.23036 
L 140.631822 209.23036 
z
" style="fill:#1f77b4;"/>
   </g>
   <g id="patch_53">
    <path clip-path="url(#pa940c7251c)" d="M 142.247934 273.312 
L 143.864046 273.312 
L 143.864046 212.11692 
L 142.247934 212.11692 
z
" style="fill:#1f77b4;"/>
   </g>
   <g id="patch_54">
    <path clip-path="url(#pa940c7251c)" d="M 143.864046 273.312 
L 145.480157 273.312 
L 145.480157 215.003481 
L 143.864046 215.003481 
z
" style="fill:#1f77b4;"/>
   </g>
   <g id="patch_55">
    <path clip-path="url(#pa940c7251c)" d="M 145.480157 273.312 
L 147.096269 273.312 
L 147.096269 213.271544 
L 145.480157 213.271544 
z
" style="fill:#1f77b4;"/>
   </g>
   <g id="patch_56">
    <path clip-path="url(#pa940c7251c)" d="M 147.096269 273.312 
L 148.712381 273.312 
L 148.712381 199.993367 
L 147.096269 199.993367 
z
" style="fill:#1f77b4;"/>
   </g>
   <g id="patch_57">
    <path clip-path="url(#pa940c7251c)" d="M 148.712381 273.312 
L 150.328492 273.312 
L 150.328492 216.158105 
L 148.712381 216.158105 
z
" style="fill:#1f77b4;"/>
   </g>
   <g id="patch_58">
    <path clip-path="url(#pa940c7251c)" d="M 150.328492 273.312 
L 151.944604 273.312 
L 151.944604 213.848856 
L 150.328492 213.848856 
z
" style="fill:#1f77b4;"/>
   </g>
   <g id="patch_59">
    <path clip-path="url(#pa940c7251c)" d="M 151.944604 273.312 
L 153.560716 273.312 
L 153.560716 216.735417 
L 151.944604 216.735417 
z
" style="fill:#1f77b4;"/>
   </g>
   <g id="patch_60">
    <path clip-path="url(#pa940c7251c)" d="M 153.560716 273.312 
L 155.176827 273.312 
L 155.176827 202.879927 
L 153.560716 202.879927 
z
" style="fill:#1f77b4;"/>
   </g>
   <g id="patch_61">
    <path clip-path="url(#pa940c7251c)" d="M 155.176827 273.312 
L 156.792939 273.312 
L 156.792939 217.890041 
L 155.176827 217.890041 
z
" style="fill:#1f77b4;"/>
   </g>
   <g id="patch_62">
    <path clip-path="url(#pa940c7251c)" d="M 156.792939 273.312 
L 158.409051 273.312 
L 158.409051 201.725303 
L 156.792939 201.725303 
z
" style="fill:#1f77b4;"/>
   </g>
   <g id="patch_63">
    <path clip-path="url(#pa940c7251c)" d="M 158.409051 273.312 
L 160.025162 273.312 
L 160.025162 199.993367 
L 158.409051 199.993367 
z
" style="fill:#1f77b4;"/>
   </g>
   <g id="patch_64">
    <path clip-path="url(#pa940c7251c)" d="M 160.025162 273.312 
L 161.641274 273.312 
L 161.641274 212.11692 
L 160.025162 212.11692 
z
" style="fill:#1f77b4;"/>
   </g>
   <g id="patch_65">
    <path clip-path="url(#pa940c7251c)" d="M 161.641274 273.312 
L 163.257386 273.312 
L 163.257386 212.694232 
L 161.641274 212.694232 
z
" style="fill:#1f77b4;"/>
   </g>
   <g id="patch_66">
    <path clip-path="url(#pa940c7251c)" d="M 163.257386 273.312 
L 164.873497 273.312 
L 164.873497 195.952182 
L 163.257386 195.952182 
z
" style="fill:#1f77b4;"/>
   </g>
   <g id="patch_67">
    <path clip-path="url(#pa940c7251c)" d="M 164.873497 273.312 
L 166.489609 273.312 
L 166.489609 204.034551 
L 164.873497 204.034551 
z
" style="fill:#1f77b4;"/>
   </g>
   <g id="patch_68">
    <path clip-path="url(#pa940c7251c)" d="M 166.489609 273.312 
L 168.105721 273.312 
L 168.105721 202.879927 
L 166.489609 202.879927 
z
" style="fill:#1f77b4;"/>
   </g>
   <g id="patch_69">
    <path clip-path="url(#pa940c7251c)" d="M 168.105721 273.312 
L 169.721832 273.312 
L 169.721832 201.725303 
L 168.105721 201.725303 
z
" style="fill:#1f77b4;"/>
   </g>
   <g id="patch_70">
    <path clip-path="url(#pa940c7251c)" d="M 169.721832 273.312 
L 171.337944 273.312 
L 171.337944 197.106806 
L 169.721832 197.106806 
z
" style="fill:#1f77b4;"/>
   </g>
   <g id="patch_71">
    <path clip-path="url(#pa940c7251c)" d="M 171.337944 273.312 
L 172.954056 273.312 
L 172.954056 191.333686 
L 171.337944 191.333686 
z
" style="fill:#1f77b4;"/>
   </g>
   <g id="patch_72">
    <path clip-path="url(#pa940c7251c)" d="M 172.954056 273.312 
L 174.570167 273.312 
L 174.570167 198.838743 
L 172.954056 198.838743 
z
" style="fill:#1f77b4;"/>
   </g>
   <g id="patch_73">
    <path clip-path="url(#pa940c7251c)" d="M 174.570167 273.312 
L 176.186279 273.312 
L 176.186279 187.869813 
L 174.570167 187.869813 
z
" style="fill:#1f77b4;"/>
   </g>
   <g id="patch_74">
    <path clip-path="url(#pa940c7251c)" d="M 176.186279 273.312 
L 177.80239 273.312 
L 177.80239 190.179062 
L 176.186279 190.179062 
z
" style="fill:#1f77b4;"/>
   </g>
   <g id="patch_75">
    <path clip-path="url(#pa940c7251c)" d="M 177.80239 273.312 
L 179.418502 273.312 
L 179.418502 193.642934 
L 177.80239 193.642934 
z
" style="fill:#1f77b4;"/>
   </g>
   <g id="patch_76">
    <path clip-path="url(#pa940c7251c)" d="M 179.418502 273.312 
L 181.034614 273.312 
L 181.034614 179.210132 
L 179.418502 179.210132 
z
" style="fill:#1f77b4;"/>
   </g>
   <g id="patch_77">
    <path clip-path="url(#pa940c7251c)" d="M 181.034614 273.312 
L 182.650725 273.312 
L 182.650725 184.983253 
L 181.034614 184.983253 
z
" style="fill:#1f77b4;"/>
   </g>
   <g id="patch_78">
    <path clip-path="url(#pa940c7251c)" d="M 182.650725 273.312 
L 184.266837 273.312 
L 184.266837 189.601749 
L 182.650725 189.601749 
z
" style="fill:#1f77b4;"/>
   </g>
   <g id="patch_79">
    <path clip-path="url(#pa940c7251c)" d="M 184.266837 273.312 
L 185.882949 273.312 
L 185.882949 186.137877 
L 184.266837 186.137877 
z
" style="fill:#1f77b4;"/>
   </g>
   <g id="patch_80">
    <path clip-path="url(#pa940c7251c)" d="M 185.882949 273.312 
L 187.49906 273.312 
L 187.49906 189.601749 
L 185.882949 189.601749 
z
" style="fill:#1f77b4;"/>
   </g>
   <g id="patch_81">
    <path clip-path="url(#pa940c7251c)" d="M 187.49906 273.312 
L 189.115172 273.312 
L 189.115172 191.333686 
L 187.49906 191.333686 
z
" style="fill:#1f77b4;"/>
   </g>
   <g id="patch_82">
    <path clip-path="url(#pa940c7251c)" d="M 189.115172 273.312 
L 190.731284 273.312 
L 190.731284 182.096692 
L 189.115172 182.096692 
z
" style="fill:#1f77b4;"/>
   </g>
   <g id="patch_83">
    <path clip-path="url(#pa940c7251c)" d="M 190.731284 273.312 
L 192.347395 273.312 
L 192.347395 172.859699 
L 190.731284 172.859699 
z
" style="fill:#1f77b4;"/>
   </g>
   <g id="patch_84">
    <path clip-path="url(#pa940c7251c)" d="M 192.347395 273.312 
L 193.963507 273.312 
L 193.963507 186.137877 
L 192.347395 186.137877 
z
" style="fill:#1f77b4;"/>
   </g>
   <g id="patch_85">
    <path clip-path="url(#pa940c7251c)" d="M 193.963507 273.312 
L 195.579619 273.312 
L 195.579619 164.77733 
L 193.963507 164.77733 
z
" style="fill:#1f77b4;"/>
   </g>
   <g id="patch_86">
    <path clip-path="url(#pa940c7251c)" d="M 195.579619 273.312 
L 197.19573 273.312 
L 197.19573 179.210132 
L 195.579619 179.210132 
z
" style="fill:#1f77b4;"/>
   </g>
   <g id="patch_87">
    <path clip-path="url(#pa940c7251c)" d="M 197.19573 273.312 
L 198.811842 273.312 
L 198.811842 165.931954 
L 197.19573 165.931954 
z
" style="fill:#1f77b4;"/>
   </g>
   <g id="patch_88">
    <path clip-path="url(#pa940c7251c)" d="M 198.811842 273.312 
L 200.427954 273.312 
L 200.427954 174.591636 
L 198.811842 174.591636 
z
" style="fill:#1f77b4;"/>
   </g>
   <g id="patch_89">
    <path clip-path="url(#pa940c7251c)" d="M 200.427954 273.312 
L 202.044065 273.312 
L 202.044065 169.395827 
L 200.427954 169.395827 
z
" style="fill:#1f77b4;"/>
   </g>
   <g id="patch_90">
    <path clip-path="url(#pa940c7251c)" d="M 202.044065 273.312 
L 203.660177 273.312 
L 203.660177 166.509267 
L 202.044065 166.509267 
z
" style="fill:#1f77b4;"/>
   </g>
   <g id="patch_91">
    <path clip-path="url(#pa940c7251c)" d="M 203.660177 273.312 
L 205.276289 273.312 
L 205.276289 179.210132 
L 203.660177 179.210132 
z
" style="fill:#1f77b4;"/>
   </g>
   <g id="patch_92">
    <path clip-path="url(#pa940c7251c)" d="M 205.276289 273.312 
L 206.8924 273.312 
L 206.8924 157.849585 
L 205.276289 157.849585 
z
" style="fill:#1f77b4;"/>
   </g>
   <g id="patch_93">
    <path clip-path="url(#pa940c7251c)" d="M 206.8924 273.312 
L 208.508512 273.312 
L 208.508512 163.622706 
L 206.8924 163.622706 
z
" style="fill:#1f77b4;"/>
   </g>
   <g id="patch_94">
    <path clip-path="url(#pa940c7251c)" d="M 208.508512 273.312 
L 210.124624 273.312 
L 210.124624 163.045394 
L 208.508512 163.045394 
z
" style="fill:#1f77b4;"/>
   </g>
   <g id="patch_95">
    <path clip-path="url(#pa940c7251c)" d="M 210.124624 273.312 
L 211.740735 273.312 
L 211.740735 163.045394 
L 210.124624 163.045394 
z
" style="fill:#1f77b4;"/>
   </g>
   <g id="patch_96">
    <path clip-path="url(#pa940c7251c)" d="M 211.740735 273.312 
L 213.356847 273.312 
L 213.356847 164.200018 
L 211.740735 164.200018 
z
" style="fill:#1f77b4;"/>
   </g>
   <g id="patch_97">
    <path clip-path="url(#pa940c7251c)" d="M 213.356847 273.312 
L 214.972959 273.312 
L 214.972959 164.200018 
L 213.356847 164.200018 
z
" style="fill:#1f77b4;"/>
   </g>
   <g id="patch_98">
    <path clip-path="url(#pa940c7251c)" d="M 214.972959 273.312 
L 216.58907 273.312 
L 216.58907 162.468082 
L 214.972959 162.468082 
z
" style="fill:#1f77b4;"/>
   </g>
   <g id="patch_99">
    <path clip-path="url(#pa940c7251c)" d="M 216.58907 273.312 
L 218.205182 273.312 
L 218.205182 179.787444 
L 216.58907 179.787444 
z
" style="fill:#1f77b4;"/>
   </g>
   <g id="patch_100">
    <path clip-path="url(#pa940c7251c)" d="M 218.205182 273.312 
L 219.821294 273.312 
L 219.821294 172.282387 
L 218.205182 172.282387 
z
" style="fill:#1f77b4;"/>
   </g>
   <g id="patch_101">
    <path clip-path="url(#pa940c7251c)" d="M 219.821294 273.312 
L 221.437405 273.312 
L 221.437405 174.014323 
L 219.821294 174.014323 
z
" style="fill:#1f77b4;"/>
   </g>
   <g id="patch_102">
    <path clip-path="url(#pa940c7251c)" d="M 221.437405 273.312 
L 223.053517 273.312 
L 223.053517 160.736146 
L 221.437405 160.736146 
z
" style="fill:#1f77b4;"/>
   </g>
   <g id="patch_103">
    <path clip-path="url(#pa940c7251c)" d="M 223.053517 273.312 
L 224.669629 273.312 
L 224.669629 165.354642 
L 223.053517 165.354642 
z
" style="fill:#1f77b4;"/>
   </g>
   <g id="patch_104">
    <path clip-path="url(#pa940c7251c)" d="M 224.669629 273.312 
L 226.28574 273.312 
L 226.28574 166.509267 
L 224.669629 166.509267 
z
" style="fill:#1f77b4;"/>
   </g>
   <g id="patch_105">
    <path clip-path="url(#pa940c7251c)" d="M 226.28574 273.312 
L 227.901852 273.312 
L 227.901852 168.241203 
L 226.28574 168.241203 
z
" style="fill:#1f77b4;"/>
   </g>
   <g id="patch_106">
    <path clip-path="url(#pa940c7251c)" d="M 227.901852 273.312 
L 229.517964 273.312 
L 229.517964 160.736146 
L 227.901852 160.736146 
z
" style="fill:#1f77b4;"/>
   </g>
   <g id="patch_107">
    <path clip-path="url(#pa940c7251c)" d="M 229.517964 273.312 
L 231.134075 273.312 
L 231.134075 151.499153 
L 229.517964 151.499153 
z
" style="fill:#1f77b4;"/>
   </g>
   <g id="patch_108">
    <path clip-path="url(#pa940c7251c)" d="M 231.134075 273.312 
L 232.750187 273.312 
L 232.750187 143.416784 
L 231.134075 143.416784 
z
" style="fill:#1f77b4;"/>
   </g>
   <g id="patch_109">
    <path clip-path="url(#pa940c7251c)" d="M 232.750187 273.312 
L 234.366299 273.312 
L 234.366299 150.344528 
L 232.750187 150.344528 
z
" style="fill:#1f77b4;"/>
   </g>
   <g id="patch_110">
    <path clip-path="url(#pa940c7251c)" d="M 234.366299 273.312 
L 235.98241 273.312 
L 235.98241 147.457968 
L 234.366299 147.457968 
z
" style="fill:#1f77b4;"/>
   </g>
   <g id="patch_111">
    <path clip-path="url(#pa940c7251c)" d="M 235.98241 273.312 
L 237.598522 273.312 
L 237.598522 138.798287 
L 235.98241 138.798287 
z
" style="fill:#1f77b4;"/>
   </g>
   <g id="patch_112">
    <path clip-path="url(#pa940c7251c)" d="M 237.598522 273.312 
L 239.214634 273.312 
L 239.214634 156.117649 
L 237.598522 156.117649 
z
" style="fill:#1f77b4;"/>
   </g>
   <g id="patch_113">
    <path clip-path="url(#pa940c7251c)" d="M 239.214634 273.312 
L 240.830745 273.312 
L 240.830745 150.344528 
L 239.214634 150.344528 
z
" style="fill:#1f77b4;"/>
   </g>
   <g id="patch_114">
    <path clip-path="url(#pa940c7251c)" d="M 240.830745 273.312 
L 242.446857 273.312 
L 242.446857 153.231089 
L 240.830745 153.231089 
z
" style="fill:#1f77b4;"/>
   </g>
   <g id="patch_115">
    <path clip-path="url(#pa940c7251c)" d="M 242.446857 273.312 
L 244.062969 273.312 
L 244.062969 137.066351 
L 242.446857 137.066351 
z
" style="fill:#1f77b4;"/>
   </g>
   <g id="patch_116">
    <path clip-path="url(#pa940c7251c)" d="M 244.062969 273.312 
L 245.67908 273.312 
L 245.67908 144.571408 
L 244.062969 144.571408 
z
" style="fill:#1f77b4;"/>
   </g>
   <g id="patch_117">
    <path clip-path="url(#pa940c7251c)" d="M 245.67908 273.312 
L 247.295192 273.312 
L 247.295192 144.571408 
L 245.67908 144.571408 
z
" style="fill:#1f77b4;"/>
   </g>
   <g id="patch_118">
    <path clip-path="url(#pa940c7251c)" d="M 247.295192 273.312 
L 248.911304 273.312 
L 248.911304 141.107535 
L 247.295192 141.107535 
z
" style="fill:#1f77b4;"/>
   </g>
   <g id="patch_119">
    <path clip-path="url(#pa940c7251c)" d="M 248.911304 273.312 
L 250.527415 273.312 
L 250.527415 142.262159 
L 248.911304 142.262159 
z
" style="fill:#1f77b4;"/>
   </g>
   <g id="patch_120">
    <path clip-path="url(#pa940c7251c)" d="M 250.527415 273.312 
L 252.143527 273.312 
L 252.143527 138.220975 
L 250.527415 138.220975 
z
" style="fill:#1f77b4;"/>
   </g>
   <g id="patch_121">
    <path clip-path="url(#pa940c7251c)" d="M 252.143527 273.312 
L 253.759639 273.312 
L 253.759639 129.561294 
L 252.143527 129.561294 
z
" style="fill:#1f77b4;"/>
   </g>
   <g id="patch_122">
    <path clip-path="url(#pa940c7251c)" d="M 253.759639 273.312 
L 255.37575 273.312 
L 255.37575 149.767216 
L 253.759639 149.767216 
z
" style="fill:#1f77b4;"/>
   </g>
   <g id="patch_123">
    <path clip-path="url(#pa940c7251c)" d="M 255.37575 273.312 
L 256.991862 273.312 
L 256.991862 134.17979 
L 255.37575 134.17979 
z
" style="fill:#1f77b4;"/>
   </g>
   <g id="patch_124">
    <path clip-path="url(#pa940c7251c)" d="M 256.991862 273.312 
L 258.607973 273.312 
L 258.607973 147.457968 
L 256.991862 147.457968 
z
" style="fill:#1f77b4;"/>
   </g>
   <g id="patch_125">
    <path clip-path="url(#pa940c7251c)" d="M 258.607973 273.312 
L 260.224085 273.312 
L 260.224085 133.602478 
L 258.607973 133.602478 
z
" style="fill:#1f77b4;"/>
   </g>
   <g id="patch_126">
    <path clip-path="url(#pa940c7251c)" d="M 260.224085 273.312 
L 261.840197 273.312 
L 261.840197 132.447854 
L 260.224085 132.447854 
z
" style="fill:#1f77b4;"/>
   </g>
   <g id="patch_127">
    <path clip-path="url(#pa940c7251c)" d="M 261.840197 273.312 
L 263.456308 273.312 
L 263.456308 117.43774 
L 261.840197 117.43774 
z
" style="fill:#1f77b4;"/>
   </g>
   <g id="patch_128">
    <path clip-path="url(#pa940c7251c)" d="M 263.456308 273.312 
L 265.07242 273.312 
L 265.07242 130.138606 
L 263.456308 130.138606 
z
" style="fill:#1f77b4;"/>
   </g>
   <g id="patch_129">
    <path clip-path="url(#pa940c7251c)" d="M 265.07242 273.312 
L 266.688532 273.312 
L 266.688532 139.952911 
L 265.07242 139.952911 
z
" style="fill:#1f77b4;"/>
   </g>
   <g id="patch_130">
    <path clip-path="url(#pa940c7251c)" d="M 266.688532 273.312 
L 268.304643 273.312 
L 268.304643 113.396556 
L 266.688532 113.396556 
z
" style="fill:#1f77b4;"/>
   </g>
   <g id="patch_131">
    <path clip-path="url(#pa940c7251c)" d="M 268.304643 273.312 
L 269.920755 273.312 
L 269.920755 120.324301 
L 268.304643 120.324301 
z
" style="fill:#1f77b4;"/>
   </g>
   <g id="patch_132">
    <path clip-path="url(#pa940c7251c)" d="M 269.920755 273.312 
L 271.536867 273.312 
L 271.536867 118.592364 
L 269.920755 118.592364 
z
" style="fill:#1f77b4;"/>
   </g>
   <g id="patch_133">
    <path clip-path="url(#pa940c7251c)" d="M 271.536867 273.312 
L 273.152978 273.312 
L 273.152978 126.097421 
L 271.536867 126.097421 
z
" style="fill:#1f77b4;"/>
   </g>
   <g id="patch_134">
    <path clip-path="url(#pa940c7251c)" d="M 273.152978 273.312 
L 274.76909 273.312 
L 274.76909 128.983982 
L 273.152978 128.983982 
z
" style="fill:#1f77b4;"/>
   </g>
   <g id="patch_135">
    <path clip-path="url(#pa940c7251c)" d="M 274.76909 273.312 
L 276.385202 273.312 
L 276.385202 110.509995 
L 274.76909 110.509995 
z
" style="fill:#1f77b4;"/>
   </g>
   <g id="patch_136">
    <path clip-path="url(#pa940c7251c)" d="M 276.385202 273.312 
L 278.001313 273.312 
L 278.001313 120.324301 
L 276.385202 120.324301 
z
" style="fill:#1f77b4;"/>
   </g>
   <g id="patch_137">
    <path clip-path="url(#pa940c7251c)" d="M 278.001313 273.312 
L 279.617425 273.312 
L 279.617425 108.200747 
L 278.001313 108.200747 
z
" style="fill:#1f77b4;"/>
   </g>
   <g id="patch_138">
    <path clip-path="url(#pa940c7251c)" d="M 279.617425 273.312 
L 281.233537 273.312 
L 281.233537 107.046123 
L 279.617425 107.046123 
z
" style="fill:#1f77b4;"/>
   </g>
   <g id="patch_139">
    <path clip-path="url(#pa940c7251c)" d="M 281.233537 273.312 
L 282.849648 273.312 
L 282.849648 108.778059 
L 281.233537 108.778059 
z
" style="fill:#1f77b4;"/>
   </g>
   <g id="patch_140">
    <path clip-path="url(#pa940c7251c)" d="M 282.849648 273.312 
L 284.46576 273.312 
L 284.46576 115.128492 
L 282.849648 115.128492 
z
" style="fill:#1f77b4;"/>
   </g>
   <g id="patch_141">
    <path clip-path="url(#pa940c7251c)" d="M 284.46576 273.312 
L 286.081872 273.312 
L 286.081872 104.736875 
L 284.46576 104.736875 
z
" style="fill:#1f77b4;"/>
   </g>
   <g id="patch_142">
    <path clip-path="url(#pa940c7251c)" d="M 286.081872 273.312 
L 287.697983 273.312 
L 287.697983 104.159563 
L 286.081872 104.159563 
z
" style="fill:#1f77b4;"/>
   </g>
   <g id="patch_143">
    <path clip-path="url(#pa940c7251c)" d="M 287.697983 273.312 
L 289.314095 273.312 
L 289.314095 123.788173 
L 287.697983 123.788173 
z
" style="fill:#1f77b4;"/>
   </g>
   <g id="patch_144">
    <path clip-path="url(#pa940c7251c)" d="M 289.314095 273.312 
L 290.930207 273.312 
L 290.930207 108.778059 
L 289.314095 108.778059 
z
" style="fill:#1f77b4;"/>
   </g>
   <g id="patch_145">
    <path clip-path="url(#pa940c7251c)" d="M 290.930207 273.312 
L 292.546318 273.312 
L 292.546318 96.077194 
L 290.930207 96.077194 
z
" style="fill:#1f77b4;"/>
   </g>
   <g id="patch_146">
    <path clip-path="url(#pa940c7251c)" d="M 292.546318 273.312 
L 294.16243 273.312 
L 294.16243 94.345257 
L 292.546318 94.345257 
z
" style="fill:#1f77b4;"/>
   </g>
   <g id="patch_147">
    <path clip-path="url(#pa940c7251c)" d="M 294.16243 273.312 
L 295.778542 273.312 
L 295.778542 114.55118 
L 294.16243 114.55118 
z
" style="fill:#1f77b4;"/>
   </g>
   <g id="patch_148">
    <path clip-path="url(#pa940c7251c)" d="M 295.778542 273.312 
L 297.394653 273.312 
L 297.394653 102.427626 
L 295.778542 102.427626 
z
" style="fill:#1f77b4;"/>
   </g>
   <g id="patch_149">
    <path clip-path="url(#pa940c7251c)" d="M 297.394653 273.312 
L 299.010765 273.312 
L 299.010765 111.087308 
L 297.394653 111.087308 
z
" style="fill:#1f77b4;"/>
   </g>
   <g id="patch_150">
    <path clip-path="url(#pa940c7251c)" d="M 299.010765 273.312 
L 300.626877 273.312 
L 300.626877 108.778059 
L 299.010765 108.778059 
z
" style="fill:#1f77b4;"/>
   </g>
   <g id="patch_151">
    <path clip-path="url(#pa940c7251c)" d="M 300.626877 273.312 
L 302.242988 273.312 
L 302.242988 97.231818 
L 300.626877 97.231818 
z
" style="fill:#1f77b4;"/>
   </g>
   <g id="patch_152">
    <path clip-path="url(#pa940c7251c)" d="M 302.242988 273.312 
L 303.8591 273.312 
L 303.8591 92.613321 
L 302.242988 92.613321 
z
" style="fill:#1f77b4;"/>
   </g>
   <g id="patch_153">
    <path clip-path="url(#pa940c7251c)" d="M 303.8591 273.312 
L 305.475212 273.312 
L 305.475212 97.231818 
L 303.8591 97.231818 
z
" style="fill:#1f77b4;"/>
   </g>
   <g id="patch_154">
    <path clip-path="url(#pa940c7251c)" d="M 305.475212 273.312 
L 307.091323 273.312 
L 307.091323 87.994825 
L 305.475212 87.994825 
z
" style="fill:#1f77b4;"/>
   </g>
   <g id="patch_155">
    <path clip-path="url(#pa940c7251c)" d="M 307.091323 273.312 
L 308.707435 273.312 
L 308.707435 85.685576 
L 307.091323 85.685576 
z
" style="fill:#1f77b4;"/>
   </g>
   <g id="patch_156">
    <path clip-path="url(#pa940c7251c)" d="M 308.707435 273.312 
L 310.323547 273.312 
L 310.323547 99.541066 
L 308.707435 99.541066 
z
" style="fill:#1f77b4;"/>
   </g>
   <g id="patch_157">
    <path clip-path="url(#pa940c7251c)" d="M 310.323547 273.312 
L 311.939658 273.312 
L 311.939658 79.335144 
L 310.323547 79.335144 
z
" style="fill:#1f77b4;"/>
   </g>
   <g id="patch_158">
    <path clip-path="url(#pa940c7251c)" d="M 311.939658 273.312 
L 313.55577 273.312 
L 313.55577 83.95364 
L 311.939658 83.95364 
z
" style="fill:#1f77b4;"/>
   </g>
   <g id="patch_159">
    <path clip-path="url(#pa940c7251c)" d="M 313.55577 273.312 
L 315.171882 273.312 
L 315.171882 100.118378 
L 313.55577 100.118378 
z
" style="fill:#1f77b4;"/>
   </g>
   <g id="patch_160">
    <path clip-path="url(#pa940c7251c)" d="M 315.171882 273.312 
L 316.787993 273.312 
L 316.787993 105.314187 
L 315.171882 105.314187 
z
" style="fill:#1f77b4;"/>
   </g>
   <g id="patch_161">
    <path clip-path="url(#pa940c7251c)" d="M 316.787993 273.312 
L 318.404105 273.312 
L 318.404105 112.241932 
L 316.787993 112.241932 
z
" style="fill:#1f77b4;"/>
   </g>
   <g id="patch_162">
    <path clip-path="url(#pa940c7251c)" d="M 318.404105 273.312 
L 320.020217 273.312 
L 320.020217 72.407399 
L 318.404105 72.407399 
z
" style="fill:#1f77b4;"/>
   </g>
   <g id="patch_163">
    <path clip-path="url(#pa940c7251c)" d="M 320.020217 273.312 
L 321.636328 273.312 
L 321.636328 88.572137 
L 320.020217 88.572137 
z
" style="fill:#1f77b4;"/>
   </g>
   <g id="patch_164">
    <path clip-path="url(#pa940c7251c)" d="M 321.636328 273.312 
L 323.25244 273.312 
L 323.25244 78.757831 
L 321.636328 78.757831 
z
" style="fill:#1f77b4;"/>
   </g>
   <g id="patch_165">
    <path clip-path="url(#pa940c7251c)" d="M 323.25244 273.312 
L 324.868552 273.312 
L 324.868552 87.994825 
L 323.25244 87.994825 
z
" style="fill:#1f77b4;"/>
   </g>
   <g id="patch_166">
    <path clip-path="url(#pa940c7251c)" d="M 324.868552 273.312 
L 326.484663 273.312 
L 326.484663 74.139335 
L 324.868552 74.139335 
z
" style="fill:#1f77b4;"/>
   </g>
   <g id="patch_167">
    <path clip-path="url(#pa940c7251c)" d="M 326.484663 273.312 
L 328.100775 273.312 
L 328.100775 88.572137 
L 326.484663 88.572137 
z
" style="fill:#1f77b4;"/>
   </g>
   <g id="patch_168">
    <path clip-path="url(#pa940c7251c)" d="M 328.100775 273.312 
L 329.716887 273.312 
L 329.716887 106.468811 
L 328.100775 106.468811 
z
" style="fill:#1f77b4;"/>
   </g>
   <g id="patch_169">
    <path clip-path="url(#pa940c7251c)" d="M 329.716887 273.312 
L 331.332998 273.312 
L 331.332998 91.458697 
L 329.716887 91.458697 
z
" style="fill:#1f77b4;"/>
   </g>
   <g id="patch_170">
    <path clip-path="url(#pa940c7251c)" d="M 331.332998 273.312 
L 332.94911 273.312 
L 332.94911 86.262888 
L 331.332998 86.262888 
z
" style="fill:#1f77b4;"/>
   </g>
   <g id="patch_171">
    <path clip-path="url(#pa940c7251c)" d="M 332.94911 273.312 
L 334.565221 273.312 
L 334.565221 89.149449 
L 332.94911 89.149449 
z
" style="fill:#1f77b4;"/>
   </g>
   <g id="patch_172">
    <path clip-path="url(#pa940c7251c)" d="M 334.565221 273.312 
L 336.181333 273.312 
L 336.181333 83.95364 
L 334.565221 83.95364 
z
" style="fill:#1f77b4;"/>
   </g>
   <g id="patch_173">
    <path clip-path="url(#pa940c7251c)" d="M 336.181333 273.312 
L 337.797445 273.312 
L 337.797445 79.335144 
L 336.181333 79.335144 
z
" style="fill:#1f77b4;"/>
   </g>
   <g id="patch_174">
    <path clip-path="url(#pa940c7251c)" d="M 337.797445 273.312 
L 339.413556 273.312 
L 339.413556 70.09815 
L 337.797445 70.09815 
z
" style="fill:#1f77b4;"/>
   </g>
   <g id="patch_175">
    <path clip-path="url(#pa940c7251c)" d="M 339.413556 273.312 
L 341.029668 273.312 
L 341.029668 75.293959 
L 339.413556 75.293959 
z
" style="fill:#1f77b4;"/>
   </g>
   <g id="patch_176">
    <path clip-path="url(#pa940c7251c)" d="M 341.029668 273.312 
L 342.64578 273.312 
L 342.64578 83.95364 
L 341.029668 83.95364 
z
" style="fill:#1f77b4;"/>
   </g>
   <g id="patch_177">
    <path clip-path="url(#pa940c7251c)" d="M 342.64578 273.312 
L 344.261891 273.312 
L 344.261891 89.149449 
L 342.64578 89.149449 
z
" style="fill:#1f77b4;"/>
   </g>
   <g id="patch_178">
    <path clip-path="url(#pa940c7251c)" d="M 344.261891 273.312 
L 345.878003 273.312 
L 345.878003 79.912456 
L 344.261891 79.912456 
z
" style="fill:#1f77b4;"/>
   </g>
   <g id="patch_179">
    <path clip-path="url(#pa940c7251c)" d="M 345.878003 273.312 
L 347.494115 273.312 
L 347.494115 57.397285 
L 345.878003 57.397285 
z
" style="fill:#1f77b4;"/>
   </g>
   <g id="patch_180">
    <path clip-path="url(#pa940c7251c)" d="M 347.494115 273.312 
L 349.110226 273.312 
L 349.110226 60.861157 
L 347.494115 60.861157 
z
" style="fill:#1f77b4;"/>
   </g>
   <g id="patch_181">
    <path clip-path="url(#pa940c7251c)" d="M 349.110226 273.312 
L 350.726338 273.312 
L 350.726338 72.407399 
L 349.110226 72.407399 
z
" style="fill:#1f77b4;"/>
   </g>
   <g id="patch_182">
    <path clip-path="url(#pa940c7251c)" d="M 350.726338 273.312 
L 352.34245 273.312 
L 352.34245 68.943526 
L 350.726338 68.943526 
z
" style="fill:#1f77b4;"/>
   </g>
   <g id="patch_183">
    <path clip-path="url(#pa940c7251c)" d="M 352.34245 273.312 
L 353.958561 273.312 
L 353.958561 79.912456 
L 352.34245 79.912456 
z
" style="fill:#1f77b4;"/>
   </g>
   <g id="patch_184">
    <path clip-path="url(#pa940c7251c)" d="M 353.958561 273.312 
L 355.574673 273.312 
L 355.574673 67.788902 
L 353.958561 67.788902 
z
" style="fill:#1f77b4;"/>
   </g>
   <g id="patch_185">
    <path clip-path="url(#pa940c7251c)" d="M 355.574673 273.312 
L 357.190785 273.312 
L 357.190785 65.479654 
L 355.574673 65.479654 
z
" style="fill:#1f77b4;"/>
   </g>
   <g id="patch_186">
    <path clip-path="url(#pa940c7251c)" d="M 357.190785 273.312 
L 358.806896 273.312 
L 358.806896 62.015781 
L 357.190785 62.015781 
z
" style="fill:#1f77b4;"/>
   </g>
   <g id="patch_187">
    <path clip-path="url(#pa940c7251c)" d="M 358.806896 273.312 
L 360.423008 273.312 
L 360.423008 66.634278 
L 358.806896 66.634278 
z
" style="fill:#1f77b4;"/>
   </g>
   <g id="patch_188">
    <path clip-path="url(#pa940c7251c)" d="M 360.423008 273.312 
L 362.03912 273.312 
L 362.03912 46.428355 
L 360.423008 46.428355 
z
" style="fill:#1f77b4;"/>
   </g>
   <g id="patch_189">
    <path clip-path="url(#pa940c7251c)" d="M 362.03912 273.312 
L 363.655231 273.312 
L 363.655231 58.551909 
L 362.03912 58.551909 
z
" style="fill:#1f77b4;"/>
   </g>
   <g id="patch_190">
    <path clip-path="url(#pa940c7251c)" d="M 363.655231 273.312 
L 365.271343 273.312 
L 365.271343 64.32503 
L 363.655231 64.32503 
z
" style="fill:#1f77b4;"/>
   </g>
   <g id="patch_191">
    <path clip-path="url(#pa940c7251c)" d="M 365.271343 273.312 
L 366.887455 273.312 
L 366.887455 51.046852 
L 365.271343 51.046852 
z
" style="fill:#1f77b4;"/>
   </g>
   <g id="patch_192">
    <path clip-path="url(#pa940c7251c)" d="M 366.887455 273.312 
L 368.503566 273.312 
L 368.503566 45.273731 
L 366.887455 45.273731 
z
" style="fill:#1f77b4;"/>
   </g>
   <g id="patch_193">
    <path clip-path="url(#pa940c7251c)" d="M 368.503566 273.312 
L 370.119678 273.312 
L 370.119678 51.624164 
L 368.503566 51.624164 
z
" style="fill:#1f77b4;"/>
   </g>
   <g id="patch_194">
    <path clip-path="url(#pa940c7251c)" d="M 370.119678 273.312 
L 371.73579 273.312 
L 371.73579 49.892228 
L 370.119678 49.892228 
z
" style="fill:#1f77b4;"/>
   </g>
   <g id="patch_195">
    <path clip-path="url(#pa940c7251c)" d="M 371.73579 273.312 
L 373.351901 273.312 
L 373.351901 56.242661 
L 371.73579 56.242661 
z
" style="fill:#1f77b4;"/>
   </g>
   <g id="patch_196">
    <path clip-path="url(#pa940c7251c)" d="M 373.351901 273.312 
L 374.968013 273.312 
L 374.968013 29.686305 
L 373.351901 29.686305 
z
" style="fill:#1f77b4;"/>
   </g>
   <g id="patch_197">
    <path clip-path="url(#pa940c7251c)" d="M 374.968013 273.312 
L 376.584125 273.312 
L 376.584125 47.005667 
L 374.968013 47.005667 
z
" style="fill:#1f77b4;"/>
   </g>
   <g id="patch_198">
    <path clip-path="url(#pa940c7251c)" d="M 376.584125 273.312 
L 378.200236 273.312 
L 378.200236 19.872 
L 376.584125 19.872 
z
" style="fill:#1f77b4;"/>
   </g>
   <g id="patch_199">
    <path clip-path="url(#pa940c7251c)" d="M 378.200236 273.312 
L 379.816348 273.312 
L 379.816348 45.273731 
L 378.200236 45.273731 
z
" style="fill:#1f77b4;"/>
   </g>
   <g id="patch_200">
    <path clip-path="url(#pa940c7251c)" d="M 379.816348 273.312 
L 381.43246 273.312 
L 381.43246 39.50061 
L 379.816348 39.50061 
z
" style="fill:#1f77b4;"/>
   </g>
   <g id="patch_201">
    <path clip-path="url(#pa940c7251c)" d="M 381.43246 273.312 
L 383.048571 273.312 
L 383.048571 37.191362 
L 381.43246 37.191362 
z
" style="fill:#1f77b4;"/>
   </g>
   <g id="patch_202">
    <path clip-path="url(#pa940c7251c)" d="M 383.048571 273.312 
L 384.664683 273.312 
L 384.664683 33.72749 
L 383.048571 33.72749 
z
" style="fill:#1f77b4;"/>
   </g>
   <g id="matplotlib.axis_1">
    <g id="xtick_1">
     <g id="line2d_1">
      <defs>
       <path d="M 0 0 
L 0 3.5 
" id="me8ba5ab621" style="stroke:#000000;stroke-width:0.8;"/>
      </defs>
      <g>
       <use style="stroke:#000000;stroke-width:0.8;" x="60.013977" xlink:href="#me8ba5ab621" y="273.312"/>
      </g>
     </g>
     <g id="text_1">
      <!-- 0.0 -->
      <g transform="translate(52.062415 287.910437)scale(0.1 -0.1)">
       <defs>
        <path d="M 2034 4250 
Q 1547 4250 1301 3770 
Q 1056 3291 1056 2328 
Q 1056 1369 1301 889 
Q 1547 409 2034 409 
Q 2525 409 2770 889 
Q 3016 1369 3016 2328 
Q 3016 3291 2770 3770 
Q 2525 4250 2034 4250 
z
M 2034 4750 
Q 2819 4750 3233 4129 
Q 3647 3509 3647 2328 
Q 3647 1150 3233 529 
Q 2819 -91 2034 -91 
Q 1250 -91 836 529 
Q 422 1150 422 2328 
Q 422 3509 836 4129 
Q 1250 4750 2034 4750 
z
" id="DejaVuSans-30" transform="scale(0.015625)"/>
        <path d="M 684 794 
L 1344 794 
L 1344 0 
L 684 0 
L 684 794 
z
" id="DejaVuSans-2e" transform="scale(0.015625)"/>
       </defs>
       <use xlink:href="#DejaVuSans-30"/>
       <use x="63.623047" xlink:href="#DejaVuSans-2e"/>
       <use x="95.410156" xlink:href="#DejaVuSans-30"/>
      </g>
     </g>
    </g>
    <g id="xtick_2">
     <g id="line2d_2">
      <g>
       <use style="stroke:#000000;stroke-width:0.8;" x="124.944886" xlink:href="#me8ba5ab621" y="273.312"/>
      </g>
     </g>
     <g id="text_2">
      <!-- 0.2 -->
      <g transform="translate(116.993324 287.910437)scale(0.1 -0.1)">
       <defs>
        <path d="M 1228 531 
L 3431 531 
L 3431 0 
L 469 0 
L 469 531 
Q 828 903 1448 1529 
Q 2069 2156 2228 2338 
Q 2531 2678 2651 2914 
Q 2772 3150 2772 3378 
Q 2772 3750 2511 3984 
Q 2250 4219 1831 4219 
Q 1534 4219 1204 4116 
Q 875 4013 500 3803 
L 500 4441 
Q 881 4594 1212 4672 
Q 1544 4750 1819 4750 
Q 2544 4750 2975 4387 
Q 3406 4025 3406 3419 
Q 3406 3131 3298 2873 
Q 3191 2616 2906 2266 
Q 2828 2175 2409 1742 
Q 1991 1309 1228 531 
z
" id="DejaVuSans-32" transform="scale(0.015625)"/>
       </defs>
       <use xlink:href="#DejaVuSans-30"/>
       <use x="63.623047" xlink:href="#DejaVuSans-2e"/>
       <use x="95.410156" xlink:href="#DejaVuSans-32"/>
      </g>
     </g>
    </g>
    <g id="xtick_3">
     <g id="line2d_3">
      <g>
       <use style="stroke:#000000;stroke-width:0.8;" x="189.875795" xlink:href="#me8ba5ab621" y="273.312"/>
      </g>
     </g>
     <g id="text_3">
      <!-- 0.4 -->
      <g transform="translate(181.924233 287.910437)scale(0.1 -0.1)">
       <defs>
        <path d="M 2419 4116 
L 825 1625 
L 2419 1625 
L 2419 4116 
z
M 2253 4666 
L 3047 4666 
L 3047 1625 
L 3713 1625 
L 3713 1100 
L 3047 1100 
L 3047 0 
L 2419 0 
L 2419 1100 
L 313 1100 
L 313 1709 
L 2253 4666 
z
" id="DejaVuSans-34" transform="scale(0.015625)"/>
       </defs>
       <use xlink:href="#DejaVuSans-30"/>
       <use x="63.623047" xlink:href="#DejaVuSans-2e"/>
       <use x="95.410156" xlink:href="#DejaVuSans-34"/>
      </g>
     </g>
    </g>
    <g id="xtick_4">
     <g id="line2d_4">
      <g>
       <use style="stroke:#000000;stroke-width:0.8;" x="254.806705" xlink:href="#me8ba5ab621" y="273.312"/>
      </g>
     </g>
     <g id="text_4">
      <!-- 0.6 -->
      <g transform="translate(246.855142 287.910437)scale(0.1 -0.1)">
       <defs>
        <path d="M 2113 2584 
Q 1688 2584 1439 2293 
Q 1191 2003 1191 1497 
Q 1191 994 1439 701 
Q 1688 409 2113 409 
Q 2538 409 2786 701 
Q 3034 994 3034 1497 
Q 3034 2003 2786 2293 
Q 2538 2584 2113 2584 
z
M 3366 4563 
L 3366 3988 
Q 3128 4100 2886 4159 
Q 2644 4219 2406 4219 
Q 1781 4219 1451 3797 
Q 1122 3375 1075 2522 
Q 1259 2794 1537 2939 
Q 1816 3084 2150 3084 
Q 2853 3084 3261 2657 
Q 3669 2231 3669 1497 
Q 3669 778 3244 343 
Q 2819 -91 2113 -91 
Q 1303 -91 875 529 
Q 447 1150 447 2328 
Q 447 3434 972 4092 
Q 1497 4750 2381 4750 
Q 2619 4750 2861 4703 
Q 3103 4656 3366 4563 
z
" id="DejaVuSans-36" transform="scale(0.015625)"/>
       </defs>
       <use xlink:href="#DejaVuSans-30"/>
       <use x="63.623047" xlink:href="#DejaVuSans-2e"/>
       <use x="95.410156" xlink:href="#DejaVuSans-36"/>
      </g>
     </g>
    </g>
    <g id="xtick_5">
     <g id="line2d_5">
      <g>
       <use style="stroke:#000000;stroke-width:0.8;" x="319.737614" xlink:href="#me8ba5ab621" y="273.312"/>
      </g>
     </g>
     <g id="text_5">
      <!-- 0.8 -->
      <g transform="translate(311.786051 287.910437)scale(0.1 -0.1)">
       <defs>
        <path d="M 2034 2216 
Q 1584 2216 1326 1975 
Q 1069 1734 1069 1313 
Q 1069 891 1326 650 
Q 1584 409 2034 409 
Q 2484 409 2743 651 
Q 3003 894 3003 1313 
Q 3003 1734 2745 1975 
Q 2488 2216 2034 2216 
z
M 1403 2484 
Q 997 2584 770 2862 
Q 544 3141 544 3541 
Q 544 4100 942 4425 
Q 1341 4750 2034 4750 
Q 2731 4750 3128 4425 
Q 3525 4100 3525 3541 
Q 3525 3141 3298 2862 
Q 3072 2584 2669 2484 
Q 3125 2378 3379 2068 
Q 3634 1759 3634 1313 
Q 3634 634 3220 271 
Q 2806 -91 2034 -91 
Q 1263 -91 848 271 
Q 434 634 434 1313 
Q 434 1759 690 2068 
Q 947 2378 1403 2484 
z
M 1172 3481 
Q 1172 3119 1398 2916 
Q 1625 2713 2034 2713 
Q 2441 2713 2670 2916 
Q 2900 3119 2900 3481 
Q 2900 3844 2670 4047 
Q 2441 4250 2034 4250 
Q 1625 4250 1398 4047 
Q 1172 3844 1172 3481 
z
" id="DejaVuSans-38" transform="scale(0.015625)"/>
       </defs>
       <use xlink:href="#DejaVuSans-30"/>
       <use x="63.623047" xlink:href="#DejaVuSans-2e"/>
       <use x="95.410156" xlink:href="#DejaVuSans-38"/>
      </g>
     </g>
    </g>
    <g id="xtick_6">
     <g id="line2d_6">
      <g>
       <use style="stroke:#000000;stroke-width:0.8;" x="384.668523" xlink:href="#me8ba5ab621" y="273.312"/>
      </g>
     </g>
     <g id="text_6">
      <!-- 1.0 -->
      <g transform="translate(376.71696 287.910437)scale(0.1 -0.1)">
       <defs>
        <path d="M 794 531 
L 1825 531 
L 1825 4091 
L 703 3866 
L 703 4441 
L 1819 4666 
L 2450 4666 
L 2450 531 
L 3481 531 
L 3481 0 
L 794 0 
L 794 531 
z
" id="DejaVuSans-31" transform="scale(0.015625)"/>
       </defs>
       <use xlink:href="#DejaVuSans-31"/>
       <use x="63.623047" xlink:href="#DejaVuSans-2e"/>
       <use x="95.410156" xlink:href="#DejaVuSans-30"/>
      </g>
     </g>
    </g>
    <g id="text_7">
     <!-- Propagation direction -->
     <g transform="translate(168.859219 301.588562)scale(0.1 -0.1)">
      <defs>
       <path d="M 1259 4147 
L 1259 2394 
L 2053 2394 
Q 2494 2394 2734 2622 
Q 2975 2850 2975 3272 
Q 2975 3691 2734 3919 
Q 2494 4147 2053 4147 
L 1259 4147 
z
M 628 4666 
L 2053 4666 
Q 2838 4666 3239 4311 
Q 3641 3956 3641 3272 
Q 3641 2581 3239 2228 
Q 2838 1875 2053 1875 
L 1259 1875 
L 1259 0 
L 628 0 
L 628 4666 
z
" id="DejaVuSans-50" transform="scale(0.015625)"/>
       <path d="M 2631 2963 
Q 2534 3019 2420 3045 
Q 2306 3072 2169 3072 
Q 1681 3072 1420 2755 
Q 1159 2438 1159 1844 
L 1159 0 
L 581 0 
L 581 3500 
L 1159 3500 
L 1159 2956 
Q 1341 3275 1631 3429 
Q 1922 3584 2338 3584 
Q 2397 3584 2469 3576 
Q 2541 3569 2628 3553 
L 2631 2963 
z
" id="DejaVuSans-72" transform="scale(0.015625)"/>
       <path d="M 1959 3097 
Q 1497 3097 1228 2736 
Q 959 2375 959 1747 
Q 959 1119 1226 758 
Q 1494 397 1959 397 
Q 2419 397 2687 759 
Q 2956 1122 2956 1747 
Q 2956 2369 2687 2733 
Q 2419 3097 1959 3097 
z
M 1959 3584 
Q 2709 3584 3137 3096 
Q 3566 2609 3566 1747 
Q 3566 888 3137 398 
Q 2709 -91 1959 -91 
Q 1206 -91 779 398 
Q 353 888 353 1747 
Q 353 2609 779 3096 
Q 1206 3584 1959 3584 
z
" id="DejaVuSans-6f" transform="scale(0.015625)"/>
       <path d="M 1159 525 
L 1159 -1331 
L 581 -1331 
L 581 3500 
L 1159 3500 
L 1159 2969 
Q 1341 3281 1617 3432 
Q 1894 3584 2278 3584 
Q 2916 3584 3314 3078 
Q 3713 2572 3713 1747 
Q 3713 922 3314 415 
Q 2916 -91 2278 -91 
Q 1894 -91 1617 61 
Q 1341 213 1159 525 
z
M 3116 1747 
Q 3116 2381 2855 2742 
Q 2594 3103 2138 3103 
Q 1681 3103 1420 2742 
Q 1159 2381 1159 1747 
Q 1159 1113 1420 752 
Q 1681 391 2138 391 
Q 2594 391 2855 752 
Q 3116 1113 3116 1747 
z
" id="DejaVuSans-70" transform="scale(0.015625)"/>
       <path d="M 2194 1759 
Q 1497 1759 1228 1600 
Q 959 1441 959 1056 
Q 959 750 1161 570 
Q 1363 391 1709 391 
Q 2188 391 2477 730 
Q 2766 1069 2766 1631 
L 2766 1759 
L 2194 1759 
z
M 3341 1997 
L 3341 0 
L 2766 0 
L 2766 531 
Q 2569 213 2275 61 
Q 1981 -91 1556 -91 
Q 1019 -91 701 211 
Q 384 513 384 1019 
Q 384 1609 779 1909 
Q 1175 2209 1959 2209 
L 2766 2209 
L 2766 2266 
Q 2766 2663 2505 2880 
Q 2244 3097 1772 3097 
Q 1472 3097 1187 3025 
Q 903 2953 641 2809 
L 641 3341 
Q 956 3463 1253 3523 
Q 1550 3584 1831 3584 
Q 2591 3584 2966 3190 
Q 3341 2797 3341 1997 
z
" id="DejaVuSans-61" transform="scale(0.015625)"/>
       <path d="M 2906 1791 
Q 2906 2416 2648 2759 
Q 2391 3103 1925 3103 
Q 1463 3103 1205 2759 
Q 947 2416 947 1791 
Q 947 1169 1205 825 
Q 1463 481 1925 481 
Q 2391 481 2648 825 
Q 2906 1169 2906 1791 
z
M 3481 434 
Q 3481 -459 3084 -895 
Q 2688 -1331 1869 -1331 
Q 1566 -1331 1297 -1286 
Q 1028 -1241 775 -1147 
L 775 -588 
Q 1028 -725 1275 -790 
Q 1522 -856 1778 -856 
Q 2344 -856 2625 -561 
Q 2906 -266 2906 331 
L 2906 616 
Q 2728 306 2450 153 
Q 2172 0 1784 0 
Q 1141 0 747 490 
Q 353 981 353 1791 
Q 353 2603 747 3093 
Q 1141 3584 1784 3584 
Q 2172 3584 2450 3431 
Q 2728 3278 2906 2969 
L 2906 3500 
L 3481 3500 
L 3481 434 
z
" id="DejaVuSans-67" transform="scale(0.015625)"/>
       <path d="M 1172 4494 
L 1172 3500 
L 2356 3500 
L 2356 3053 
L 1172 3053 
L 1172 1153 
Q 1172 725 1289 603 
Q 1406 481 1766 481 
L 2356 481 
L 2356 0 
L 1766 0 
Q 1100 0 847 248 
Q 594 497 594 1153 
L 594 3053 
L 172 3053 
L 172 3500 
L 594 3500 
L 594 4494 
L 1172 4494 
z
" id="DejaVuSans-74" transform="scale(0.015625)"/>
       <path d="M 603 3500 
L 1178 3500 
L 1178 0 
L 603 0 
L 603 3500 
z
M 603 4863 
L 1178 4863 
L 1178 4134 
L 603 4134 
L 603 4863 
z
" id="DejaVuSans-69" transform="scale(0.015625)"/>
       <path d="M 3513 2113 
L 3513 0 
L 2938 0 
L 2938 2094 
Q 2938 2591 2744 2837 
Q 2550 3084 2163 3084 
Q 1697 3084 1428 2787 
Q 1159 2491 1159 1978 
L 1159 0 
L 581 0 
L 581 3500 
L 1159 3500 
L 1159 2956 
Q 1366 3272 1645 3428 
Q 1925 3584 2291 3584 
Q 2894 3584 3203 3211 
Q 3513 2838 3513 2113 
z
" id="DejaVuSans-6e" transform="scale(0.015625)"/>
       <path id="DejaVuSans-20" transform="scale(0.015625)"/>
       <path d="M 2906 2969 
L 2906 4863 
L 3481 4863 
L 3481 0 
L 2906 0 
L 2906 525 
Q 2725 213 2448 61 
Q 2172 -91 1784 -91 
Q 1150 -91 751 415 
Q 353 922 353 1747 
Q 353 2572 751 3078 
Q 1150 3584 1784 3584 
Q 2172 3584 2448 3432 
Q 2725 3281 2906 2969 
z
M 947 1747 
Q 947 1113 1208 752 
Q 1469 391 1925 391 
Q 2381 391 2643 752 
Q 2906 1113 2906 1747 
Q 2906 2381 2643 2742 
Q 2381 3103 1925 3103 
Q 1469 3103 1208 2742 
Q 947 2381 947 1747 
z
" id="DejaVuSans-64" transform="scale(0.015625)"/>
       <path d="M 3597 1894 
L 3597 1613 
L 953 1613 
Q 991 1019 1311 708 
Q 1631 397 2203 397 
Q 2534 397 2845 478 
Q 3156 559 3463 722 
L 3463 178 
Q 3153 47 2828 -22 
Q 2503 -91 2169 -91 
Q 1331 -91 842 396 
Q 353 884 353 1716 
Q 353 2575 817 3079 
Q 1281 3584 2069 3584 
Q 2775 3584 3186 3129 
Q 3597 2675 3597 1894 
z
M 3022 2063 
Q 3016 2534 2758 2815 
Q 2500 3097 2075 3097 
Q 1594 3097 1305 2825 
Q 1016 2553 972 2059 
L 3022 2063 
z
" id="DejaVuSans-65" transform="scale(0.015625)"/>
       <path d="M 3122 3366 
L 3122 2828 
Q 2878 2963 2633 3030 
Q 2388 3097 2138 3097 
Q 1578 3097 1268 2742 
Q 959 2388 959 1747 
Q 959 1106 1268 751 
Q 1578 397 2138 397 
Q 2388 397 2633 464 
Q 2878 531 3122 666 
L 3122 134 
Q 2881 22 2623 -34 
Q 2366 -91 2075 -91 
Q 1284 -91 818 406 
Q 353 903 353 1747 
Q 353 2603 823 3093 
Q 1294 3584 2113 3584 
Q 2378 3584 2631 3529 
Q 2884 3475 3122 3366 
z
" id="DejaVuSans-63" transform="scale(0.015625)"/>
      </defs>
      <use xlink:href="#DejaVuSans-50"/>
      <use x="58.552734" xlink:href="#DejaVuSans-72"/>
      <use x="97.416016" xlink:href="#DejaVuSans-6f"/>
      <use x="158.597656" xlink:href="#DejaVuSans-70"/>
      <use x="222.074219" xlink:href="#DejaVuSans-61"/>
      <use x="283.353516" xlink:href="#DejaVuSans-67"/>
      <use x="346.830078" xlink:href="#DejaVuSans-61"/>
      <use x="408.109375" xlink:href="#DejaVuSans-74"/>
      <use x="447.318359" xlink:href="#DejaVuSans-69"/>
      <use x="475.101562" xlink:href="#DejaVuSans-6f"/>
      <use x="536.283203" xlink:href="#DejaVuSans-6e"/>
      <use x="599.662109" xlink:href="#DejaVuSans-20"/>
      <use x="631.449219" xlink:href="#DejaVuSans-64"/>
      <use x="694.925781" xlink:href="#DejaVuSans-69"/>
      <use x="722.708984" xlink:href="#DejaVuSans-72"/>
      <use x="761.572266" xlink:href="#DejaVuSans-65"/>
      <use x="823.095703" xlink:href="#DejaVuSans-63"/>
      <use x="878.076172" xlink:href="#DejaVuSans-74"/>
      <use x="917.285156" xlink:href="#DejaVuSans-69"/>
      <use x="945.068359" xlink:href="#DejaVuSans-6f"/>
      <use x="1006.25" xlink:href="#DejaVuSans-6e"/>
     </g>
    </g>
   </g>
   <g id="matplotlib.axis_2">
    <g id="ytick_1">
     <g id="line2d_7">
      <defs>
       <path d="M 0 0 
L -3.5 0 
" id="m7779b6fd33" style="stroke:#000000;stroke-width:0.8;"/>
      </defs>
      <g>
       <use style="stroke:#000000;stroke-width:0.8;" x="43.78125" xlink:href="#m7779b6fd33" y="273.312"/>
      </g>
     </g>
     <g id="text_8">
      <!-- 0.0 -->
      <g transform="translate(20.878125 277.111219)scale(0.1 -0.1)">
       <use xlink:href="#DejaVuSans-30"/>
       <use x="63.623047" xlink:href="#DejaVuSans-2e"/>
       <use x="95.410156" xlink:href="#DejaVuSans-30"/>
      </g>
     </g>
    </g>
    <g id="ytick_2">
     <g id="line2d_8">
      <g>
       <use style="stroke:#000000;stroke-width:0.8;" x="43.78125" xlink:href="#m7779b6fd33" y="215.835474"/>
      </g>
     </g>
     <g id="text_9">
      <!-- 0.5 -->
      <g transform="translate(20.878125 219.634693)scale(0.1 -0.1)">
       <defs>
        <path d="M 691 4666 
L 3169 4666 
L 3169 4134 
L 1269 4134 
L 1269 2991 
Q 1406 3038 1543 3061 
Q 1681 3084 1819 3084 
Q 2600 3084 3056 2656 
Q 3513 2228 3513 1497 
Q 3513 744 3044 326 
Q 2575 -91 1722 -91 
Q 1428 -91 1123 -41 
Q 819 9 494 109 
L 494 744 
Q 775 591 1075 516 
Q 1375 441 1709 441 
Q 2250 441 2565 725 
Q 2881 1009 2881 1497 
Q 2881 1984 2565 2268 
Q 2250 2553 1709 2553 
Q 1456 2553 1204 2497 
Q 953 2441 691 2322 
L 691 4666 
z
" id="DejaVuSans-35" transform="scale(0.015625)"/>
       </defs>
       <use xlink:href="#DejaVuSans-30"/>
       <use x="63.623047" xlink:href="#DejaVuSans-2e"/>
       <use x="95.410156" xlink:href="#DejaVuSans-35"/>
      </g>
     </g>
    </g>
    <g id="ytick_3">
     <g id="line2d_9">
      <g>
       <use style="stroke:#000000;stroke-width:0.8;" x="43.78125" xlink:href="#m7779b6fd33" y="158.358948"/>
      </g>
     </g>
     <g id="text_10">
      <!-- 1.0 -->
      <g transform="translate(20.878125 162.158167)scale(0.1 -0.1)">
       <use xlink:href="#DejaVuSans-31"/>
       <use x="63.623047" xlink:href="#DejaVuSans-2e"/>
       <use x="95.410156" xlink:href="#DejaVuSans-30"/>
      </g>
     </g>
    </g>
    <g id="ytick_4">
     <g id="line2d_10">
      <g>
       <use style="stroke:#000000;stroke-width:0.8;" x="43.78125" xlink:href="#m7779b6fd33" y="100.882422"/>
      </g>
     </g>
     <g id="text_11">
      <!-- 1.5 -->
      <g transform="translate(20.878125 104.681641)scale(0.1 -0.1)">
       <use xlink:href="#DejaVuSans-31"/>
       <use x="63.623047" xlink:href="#DejaVuSans-2e"/>
       <use x="95.410156" xlink:href="#DejaVuSans-35"/>
      </g>
     </g>
    </g>
    <g id="ytick_5">
     <g id="line2d_11">
      <g>
       <use style="stroke:#000000;stroke-width:0.8;" x="43.78125" xlink:href="#m7779b6fd33" y="43.405896"/>
      </g>
     </g>
     <g id="text_12">
      <!-- 2.0 -->
      <g transform="translate(20.878125 47.205114)scale(0.1 -0.1)">
       <use xlink:href="#DejaVuSans-32"/>
       <use x="63.623047" xlink:href="#DejaVuSans-2e"/>
       <use x="95.410156" xlink:href="#DejaVuSans-30"/>
      </g>
     </g>
    </g>
    <g id="text_13">
     <!-- Probability density -->
     <g transform="translate(14.798438 186.606781)rotate(-90)scale(0.1 -0.1)">
      <defs>
       <path d="M 3116 1747 
Q 3116 2381 2855 2742 
Q 2594 3103 2138 3103 
Q 1681 3103 1420 2742 
Q 1159 2381 1159 1747 
Q 1159 1113 1420 752 
Q 1681 391 2138 391 
Q 2594 391 2855 752 
Q 3116 1113 3116 1747 
z
M 1159 2969 
Q 1341 3281 1617 3432 
Q 1894 3584 2278 3584 
Q 2916 3584 3314 3078 
Q 3713 2572 3713 1747 
Q 3713 922 3314 415 
Q 2916 -91 2278 -91 
Q 1894 -91 1617 61 
Q 1341 213 1159 525 
L 1159 0 
L 581 0 
L 581 4863 
L 1159 4863 
L 1159 2969 
z
" id="DejaVuSans-62" transform="scale(0.015625)"/>
       <path d="M 603 4863 
L 1178 4863 
L 1178 0 
L 603 0 
L 603 4863 
z
" id="DejaVuSans-6c" transform="scale(0.015625)"/>
       <path d="M 2059 -325 
Q 1816 -950 1584 -1140 
Q 1353 -1331 966 -1331 
L 506 -1331 
L 506 -850 
L 844 -850 
Q 1081 -850 1212 -737 
Q 1344 -625 1503 -206 
L 1606 56 
L 191 3500 
L 800 3500 
L 1894 763 
L 2988 3500 
L 3597 3500 
L 2059 -325 
z
" id="DejaVuSans-79" transform="scale(0.015625)"/>
       <path d="M 2834 3397 
L 2834 2853 
Q 2591 2978 2328 3040 
Q 2066 3103 1784 3103 
Q 1356 3103 1142 2972 
Q 928 2841 928 2578 
Q 928 2378 1081 2264 
Q 1234 2150 1697 2047 
L 1894 2003 
Q 2506 1872 2764 1633 
Q 3022 1394 3022 966 
Q 3022 478 2636 193 
Q 2250 -91 1575 -91 
Q 1294 -91 989 -36 
Q 684 19 347 128 
L 347 722 
Q 666 556 975 473 
Q 1284 391 1588 391 
Q 1994 391 2212 530 
Q 2431 669 2431 922 
Q 2431 1156 2273 1281 
Q 2116 1406 1581 1522 
L 1381 1569 
Q 847 1681 609 1914 
Q 372 2147 372 2553 
Q 372 3047 722 3315 
Q 1072 3584 1716 3584 
Q 2034 3584 2315 3537 
Q 2597 3491 2834 3397 
z
" id="DejaVuSans-73" transform="scale(0.015625)"/>
      </defs>
      <use xlink:href="#DejaVuSans-50"/>
      <use x="58.552734" xlink:href="#DejaVuSans-72"/>
      <use x="97.416016" xlink:href="#DejaVuSans-6f"/>
      <use x="158.597656" xlink:href="#DejaVuSans-62"/>
      <use x="222.074219" xlink:href="#DejaVuSans-61"/>
      <use x="283.353516" xlink:href="#DejaVuSans-62"/>
      <use x="346.830078" xlink:href="#DejaVuSans-69"/>
      <use x="374.613281" xlink:href="#DejaVuSans-6c"/>
      <use x="402.396484" xlink:href="#DejaVuSans-69"/>
      <use x="430.179688" xlink:href="#DejaVuSans-74"/>
      <use x="469.388672" xlink:href="#DejaVuSans-79"/>
      <use x="528.568359" xlink:href="#DejaVuSans-20"/>
      <use x="560.355469" xlink:href="#DejaVuSans-64"/>
      <use x="623.832031" xlink:href="#DejaVuSans-65"/>
      <use x="685.355469" xlink:href="#DejaVuSans-6e"/>
      <use x="748.734375" xlink:href="#DejaVuSans-73"/>
      <use x="800.833984" xlink:href="#DejaVuSans-69"/>
      <use x="828.617188" xlink:href="#DejaVuSans-74"/>
      <use x="867.826172" xlink:href="#DejaVuSans-79"/>
     </g>
    </g>
   </g>
   <g id="line2d_12">
    <path clip-path="url(#pa940c7251c)" d="M 60.013977 273.312 
L 384.668523 43.405896 
L 384.668523 43.405896 
" style="fill:none;stroke:#ff7f0e;stroke-linecap:square;stroke-width:1.5;"/>
   </g>
   <g id="patch_203">
    <path d="M 43.78125 273.312 
L 43.78125 7.2 
" style="fill:none;stroke:#000000;stroke-linecap:square;stroke-linejoin:miter;stroke-width:0.8;"/>
   </g>
   <g id="patch_204">
    <path d="M 400.90125 273.312 
L 400.90125 7.2 
" style="fill:none;stroke:#000000;stroke-linecap:square;stroke-linejoin:miter;stroke-width:0.8;"/>
   </g>
   <g id="patch_205">
    <path d="M 43.78125 273.312 
L 400.90125 273.312 
" style="fill:none;stroke:#000000;stroke-linecap:square;stroke-linejoin:miter;stroke-width:0.8;"/>
   </g>
   <g id="patch_206">
    <path d="M 43.78125 7.2 
L 400.90125 7.2 
" style="fill:none;stroke:#000000;stroke-linecap:square;stroke-linejoin:miter;stroke-width:0.8;"/>
   </g>
  </g>
 </g>
 <defs>
  <clipPath id="pa940c7251c">
   <rect height="266.112" width="357.12" x="43.78125" y="7.2"/>
  </clipPath>
 </defs>
</svg>
