<?xml version="1.0" encoding="utf-8" standalone="no"?>
<!DOCTYPE svg PUBLIC "-//W3C//DTD SVG 1.1//EN"
  "http://www.w3.org/Graphics/SVG/1.1/DTD/svg11.dtd">
<svg height="310.86825pt" version="1.1" viewBox="0 0 408.10125 310.86825" width="408.10125pt" xmlns="http://www.w3.org/2000/svg" xmlns:xlink="http://www.w3.org/1999/xlink">
 <metadata>
  <rdf:RDF xmlns:cc="http://creativecommons.org/ns#" xmlns:dc="http://purl.org/dc/elements/1.1/" xmlns:rdf="http://www.w3.org/1999/02/22-rdf-syntax-ns#">
   <cc:Work>
    <dc:type rdf:resource="http://purl.org/dc/dcmitype/StillImage"/>
    <dc:date>2021-06-27T00:25:14.021559</dc:date>
    <dc:format>image/svg+xml</dc:format>
    <dc:creator>
     <cc:Agent>
      <dc:title>Matplotlib v3.4.2, https://matplotlib.org/</dc:title>
     </cc:Agent>
    </dc:creator>
   </cc:Work>
  </rdf:RDF>
 </metadata>
 <defs>
  <style type="text/css">*{stroke-linecap:butt;stroke-linejoin:round;}</style>
 </defs>
 <g id="figure_1">
  <g id="patch_1">
   <path d="M 0 310.86825 
L 408.10125 310.86825 
L 408.10125 0 
L 0 0 
z
" style="fill:#ffffff;"/>
  </g>
  <g id="axes_1">
   <g id="patch_2">
    <path d="M 43.78125 273.312 
L 400.90125 273.312 
L 400.90125 7.2 
L 43.78125 7.2 
z
" style="fill:#ffffff;"/>
   </g>
   <g id="patch_3">
    <path clip-path="url(#pe0626a3a13)" d="M 61.019193 273.312 
L 62.632893 273.312 
L 62.632893 270.339097 
L 61.019193 270.339097 
z
" style="fill:#1f77b4;"/>
   </g>
   <g id="patch_4">
    <path clip-path="url(#pe0626a3a13)" d="M 62.632893 273.312 
L 64.246593 273.312 
L 64.246593 265.136516 
L 62.632893 265.136516 
z
" style="fill:#1f77b4;"/>
   </g>
   <g id="patch_5">
    <path clip-path="url(#pe0626a3a13)" d="M 64.246593 273.312 
L 65.860293 273.312 
L 65.860293 265.879742 
L 64.246593 265.879742 
z
" style="fill:#1f77b4;"/>
   </g>
   <g id="patch_6">
    <path clip-path="url(#pe0626a3a13)" d="M 65.860293 273.312 
L 67.473993 273.312 
L 67.473993 257.704258 
L 65.860293 257.704258 
z
" style="fill:#1f77b4;"/>
   </g>
   <g id="patch_7">
    <path clip-path="url(#pe0626a3a13)" d="M 67.473993 273.312 
L 69.087693 273.312 
L 69.087693 248.785548 
L 67.473993 248.785548 
z
" style="fill:#1f77b4;"/>
   </g>
   <g id="patch_8">
    <path clip-path="url(#pe0626a3a13)" d="M 69.087693 273.312 
L 70.701393 273.312 
L 70.701393 248.785548 
L 69.087693 248.785548 
z
" style="fill:#1f77b4;"/>
   </g>
   <g id="patch_9">
    <path clip-path="url(#pe0626a3a13)" d="M 70.701393 273.312 
L 72.315093 273.312 
L 72.315093 251.758452 
L 70.701393 251.758452 
z
" style="fill:#1f77b4;"/>
   </g>
   <g id="patch_10">
    <path clip-path="url(#pe0626a3a13)" d="M 72.315093 273.312 
L 73.928793 273.312 
L 73.928793 243.582968 
L 72.315093 243.582968 
z
" style="fill:#1f77b4;"/>
   </g>
   <g id="patch_11">
    <path clip-path="url(#pe0626a3a13)" d="M 73.928793 273.312 
L 75.542493 273.312 
L 75.542493 233.921032 
L 73.928793 233.921032 
z
" style="fill:#1f77b4;"/>
   </g>
   <g id="patch_12">
    <path clip-path="url(#pe0626a3a13)" d="M 75.542493 273.312 
L 77.156193 273.312 
L 77.156193 236.893935 
L 75.542493 236.893935 
z
" style="fill:#1f77b4;"/>
   </g>
   <g id="patch_13">
    <path clip-path="url(#pe0626a3a13)" d="M 77.156193 273.312 
L 78.769893 273.312 
L 78.769893 228.718452 
L 77.156193 228.718452 
z
" style="fill:#1f77b4;"/>
   </g>
   <g id="patch_14">
    <path clip-path="url(#pe0626a3a13)" d="M 78.769893 273.312 
L 80.383593 273.312 
L 80.383593 227.232 
L 78.769893 227.232 
z
" style="fill:#1f77b4;"/>
   </g>
   <g id="patch_15">
    <path clip-path="url(#pe0626a3a13)" d="M 80.383593 273.312 
L 81.997293 273.312 
L 81.997293 225.002323 
L 80.383593 225.002323 
z
" style="fill:#1f77b4;"/>
   </g>
   <g id="patch_16">
    <path clip-path="url(#pe0626a3a13)" d="M 81.997293 273.312 
L 83.610993 273.312 
L 83.610993 222.029419 
L 81.997293 222.029419 
z
" style="fill:#1f77b4;"/>
   </g>
   <g id="patch_17">
    <path clip-path="url(#pe0626a3a13)" d="M 83.610993 273.312 
L 85.224693 273.312 
L 85.224693 218.31329 
L 83.610993 218.31329 
z
" style="fill:#1f77b4;"/>
   </g>
   <g id="patch_18">
    <path clip-path="url(#pe0626a3a13)" d="M 85.224693 273.312 
L 86.838393 273.312 
L 86.838393 213.11071 
L 85.224693 213.11071 
z
" style="fill:#1f77b4;"/>
   </g>
   <g id="patch_19">
    <path clip-path="url(#pe0626a3a13)" d="M 86.838393 273.312 
L 88.452093 273.312 
L 88.452093 208.651355 
L 86.838393 208.651355 
z
" style="fill:#1f77b4;"/>
   </g>
   <g id="patch_20">
    <path clip-path="url(#pe0626a3a13)" d="M 88.452093 273.312 
L 90.065793 273.312 
L 90.065793 209.394581 
L 88.452093 209.394581 
z
" style="fill:#1f77b4;"/>
   </g>
   <g id="patch_21">
    <path clip-path="url(#pe0626a3a13)" d="M 90.065793 273.312 
L 91.679493 273.312 
L 91.679493 198.989419 
L 90.065793 198.989419 
z
" style="fill:#1f77b4;"/>
   </g>
   <g id="patch_22">
    <path clip-path="url(#pe0626a3a13)" d="M 91.679493 273.312 
L 93.293193 273.312 
L 93.293193 199.732645 
L 91.679493 199.732645 
z
" style="fill:#1f77b4;"/>
   </g>
   <g id="patch_23">
    <path clip-path="url(#pe0626a3a13)" d="M 93.293193 273.312 
L 94.906893 273.312 
L 94.906893 201.219097 
L 93.293193 201.219097 
z
" style="fill:#1f77b4;"/>
   </g>
   <g id="patch_24">
    <path clip-path="url(#pe0626a3a13)" d="M 94.906893 273.312 
L 96.520593 273.312 
L 96.520593 184.868129 
L 94.906893 184.868129 
z
" style="fill:#1f77b4;"/>
   </g>
   <g id="patch_25">
    <path clip-path="url(#pe0626a3a13)" d="M 96.520593 273.312 
L 98.134293 273.312 
L 98.134293 190.813935 
L 96.520593 190.813935 
z
" style="fill:#1f77b4;"/>
   </g>
   <g id="patch_26">
    <path clip-path="url(#pe0626a3a13)" d="M 98.134293 273.312 
L 99.747992 273.312 
L 99.747992 188.584258 
L 98.134293 188.584258 
z
" style="fill:#1f77b4;"/>
   </g>
   <g id="patch_27">
    <path clip-path="url(#pe0626a3a13)" d="M 99.747992 273.312 
L 101.361692 273.312 
L 101.361692 186.354581 
L 99.747992 186.354581 
z
" style="fill:#1f77b4;"/>
   </g>
   <g id="patch_28">
    <path clip-path="url(#pe0626a3a13)" d="M 101.361692 273.312 
L 102.975392 273.312 
L 102.975392 182.638452 
L 101.361692 182.638452 
z
" style="fill:#1f77b4;"/>
   </g>
   <g id="patch_29">
    <path clip-path="url(#pe0626a3a13)" d="M 102.975392 273.312 
L 104.589092 273.312 
L 104.589092 158.855226 
L 102.975392 158.855226 
z
" style="fill:#1f77b4;"/>
   </g>
   <g id="patch_30">
    <path clip-path="url(#pe0626a3a13)" d="M 104.589092 273.312 
L 106.202792 273.312 
L 106.202792 155.882323 
L 104.589092 155.882323 
z
" style="fill:#1f77b4;"/>
   </g>
   <g id="patch_31">
    <path clip-path="url(#pe0626a3a13)" d="M 106.202792 273.312 
L 107.816492 273.312 
L 107.816492 162.571355 
L 106.202792 162.571355 
z
" style="fill:#1f77b4;"/>
   </g>
   <g id="patch_32">
    <path clip-path="url(#pe0626a3a13)" d="M 107.816492 273.312 
L 109.430192 273.312 
L 109.430192 178.922323 
L 107.816492 178.922323 
z
" style="fill:#1f77b4;"/>
   </g>
   <g id="patch_33">
    <path clip-path="url(#pe0626a3a13)" d="M 109.430192 273.312 
L 111.043892 273.312 
L 111.043892 151.422968 
L 109.430192 151.422968 
z
" style="fill:#1f77b4;"/>
   </g>
   <g id="patch_34">
    <path clip-path="url(#pe0626a3a13)" d="M 111.043892 273.312 
L 112.657592 273.312 
L 112.657592 144.733935 
L 111.043892 144.733935 
z
" style="fill:#1f77b4;"/>
   </g>
   <g id="patch_35">
    <path clip-path="url(#pe0626a3a13)" d="M 112.657592 273.312 
L 114.271292 273.312 
L 114.271292 167.03071 
L 112.657592 167.03071 
z
" style="fill:#1f77b4;"/>
   </g>
   <g id="patch_36">
    <path clip-path="url(#pe0626a3a13)" d="M 114.271292 273.312 
L 115.884992 273.312 
L 115.884992 154.395871 
L 114.271292 154.395871 
z
" style="fill:#1f77b4;"/>
   </g>
   <g id="patch_37">
    <path clip-path="url(#pe0626a3a13)" d="M 115.884992 273.312 
L 117.498692 273.312 
L 117.498692 155.882323 
L 115.884992 155.882323 
z
" style="fill:#1f77b4;"/>
   </g>
   <g id="patch_38">
    <path clip-path="url(#pe0626a3a13)" d="M 117.498692 273.312 
L 119.112392 273.312 
L 119.112392 144.733935 
L 117.498692 144.733935 
z
" style="fill:#1f77b4;"/>
   </g>
   <g id="patch_39">
    <path clip-path="url(#pe0626a3a13)" d="M 119.112392 273.312 
L 120.726092 273.312 
L 120.726092 144.733935 
L 119.112392 144.733935 
z
" style="fill:#1f77b4;"/>
   </g>
   <g id="patch_40">
    <path clip-path="url(#pe0626a3a13)" d="M 120.726092 273.312 
L 122.339792 273.312 
L 122.339792 141.017806 
L 120.726092 141.017806 
z
" style="fill:#1f77b4;"/>
   </g>
   <g id="patch_41">
    <path clip-path="url(#pe0626a3a13)" d="M 122.339792 273.312 
L 123.953492 273.312 
L 123.953492 124.666839 
L 122.339792 124.666839 
z
" style="fill:#1f77b4;"/>
   </g>
   <g id="patch_42">
    <path clip-path="url(#pe0626a3a13)" d="M 123.953492 273.312 
L 125.567192 273.312 
L 125.567192 142.504258 
L 123.953492 142.504258 
z
" style="fill:#1f77b4;"/>
   </g>
   <g id="patch_43">
    <path clip-path="url(#pe0626a3a13)" d="M 125.567192 273.312 
L 127.180892 273.312 
L 127.180892 124.666839 
L 125.567192 124.666839 
z
" style="fill:#1f77b4;"/>
   </g>
   <g id="patch_44">
    <path clip-path="url(#pe0626a3a13)" d="M 127.180892 273.312 
L 128.794592 273.312 
L 128.794592 129.869419 
L 127.180892 129.869419 
z
" style="fill:#1f77b4;"/>
   </g>
   <g id="patch_45">
    <path clip-path="url(#pe0626a3a13)" d="M 128.794592 273.312 
L 130.408292 273.312 
L 130.408292 126.896516 
L 128.794592 126.896516 
z
" style="fill:#1f77b4;"/>
   </g>
   <g id="patch_46">
    <path clip-path="url(#pe0626a3a13)" d="M 130.408292 273.312 
L 132.021992 273.312 
L 132.021992 123.180387 
L 130.408292 123.180387 
z
" style="fill:#1f77b4;"/>
   </g>
   <g id="patch_47">
    <path clip-path="url(#pe0626a3a13)" d="M 132.021992 273.312 
L 133.635692 273.312 
L 133.635692 109.059097 
L 132.021992 109.059097 
z
" style="fill:#1f77b4;"/>
   </g>
   <g id="patch_48">
    <path clip-path="url(#pe0626a3a13)" d="M 133.635692 273.312 
L 135.249392 273.312 
L 135.249392 141.761032 
L 133.635692 141.761032 
z
" style="fill:#1f77b4;"/>
   </g>
   <g id="patch_49">
    <path clip-path="url(#pe0626a3a13)" d="M 135.249392 273.312 
L 136.863092 273.312 
L 136.863092 107.572645 
L 135.249392 107.572645 
z
" style="fill:#1f77b4;"/>
   </g>
   <g id="patch_50">
    <path clip-path="url(#pe0626a3a13)" d="M 136.863092 273.312 
L 138.476792 273.312 
L 138.476792 112.775226 
L 136.863092 112.775226 
z
" style="fill:#1f77b4;"/>
   </g>
   <g id="patch_51">
    <path clip-path="url(#pe0626a3a13)" d="M 138.476792 273.312 
L 140.090492 273.312 
L 140.090492 107.572645 
L 138.476792 107.572645 
z
" style="fill:#1f77b4;"/>
   </g>
   <g id="patch_52">
    <path clip-path="url(#pe0626a3a13)" d="M 140.090492 273.312 
L 141.704192 273.312 
L 141.704192 109.059097 
L 140.090492 109.059097 
z
" style="fill:#1f77b4;"/>
   </g>
   <g id="patch_53">
    <path clip-path="url(#pe0626a3a13)" d="M 141.704192 273.312 
L 143.317892 273.312 
L 143.317892 110.545548 
L 141.704192 110.545548 
z
" style="fill:#1f77b4;"/>
   </g>
   <g id="patch_54">
    <path clip-path="url(#pe0626a3a13)" d="M 143.317892 273.312 
L 144.931592 273.312 
L 144.931592 99.397161 
L 143.317892 99.397161 
z
" style="fill:#1f77b4;"/>
   </g>
   <g id="patch_55">
    <path clip-path="url(#pe0626a3a13)" d="M 144.931592 273.312 
L 146.545292 273.312 
L 146.545292 103.11329 
L 144.931592 103.11329 
z
" style="fill:#1f77b4;"/>
   </g>
   <g id="patch_56">
    <path clip-path="url(#pe0626a3a13)" d="M 146.545292 273.312 
L 148.158992 273.312 
L 148.158992 106.086194 
L 146.545292 106.086194 
z
" style="fill:#1f77b4;"/>
   </g>
   <g id="patch_57">
    <path clip-path="url(#pe0626a3a13)" d="M 148.158992 273.312 
L 149.772692 273.312 
L 149.772692 104.599742 
L 148.158992 104.599742 
z
" style="fill:#1f77b4;"/>
   </g>
   <g id="patch_58">
    <path clip-path="url(#pe0626a3a13)" d="M 149.772692 273.312 
L 151.386392 273.312 
L 151.386392 94.194581 
L 149.772692 94.194581 
z
" style="fill:#1f77b4;"/>
   </g>
   <g id="patch_59">
    <path clip-path="url(#pe0626a3a13)" d="M 151.386392 273.312 
L 153.000092 273.312 
L 153.000092 106.829419 
L 151.386392 106.829419 
z
" style="fill:#1f77b4;"/>
   </g>
   <g id="patch_60">
    <path clip-path="url(#pe0626a3a13)" d="M 153.000092 273.312 
L 154.613792 273.312 
L 154.613792 108.315871 
L 153.000092 108.315871 
z
" style="fill:#1f77b4;"/>
   </g>
   <g id="patch_61">
    <path clip-path="url(#pe0626a3a13)" d="M 154.613792 273.312 
L 156.227492 273.312 
L 156.227492 83.046194 
L 154.613792 83.046194 
z
" style="fill:#1f77b4;"/>
   </g>
   <g id="patch_62">
    <path clip-path="url(#pe0626a3a13)" d="M 156.227492 273.312 
L 157.841192 273.312 
L 157.841192 79.330065 
L 156.227492 79.330065 
z
" style="fill:#1f77b4;"/>
   </g>
   <g id="patch_63">
    <path clip-path="url(#pe0626a3a13)" d="M 157.841192 273.312 
L 159.454892 273.312 
L 159.454892 79.330065 
L 157.841192 79.330065 
z
" style="fill:#1f77b4;"/>
   </g>
   <g id="patch_64">
    <path clip-path="url(#pe0626a3a13)" d="M 159.454892 273.312 
L 161.068592 273.312 
L 161.068592 68.181677 
L 159.454892 68.181677 
z
" style="fill:#1f77b4;"/>
   </g>
   <g id="patch_65">
    <path clip-path="url(#pe0626a3a13)" d="M 161.068592 273.312 
L 162.682292 273.312 
L 162.682292 82.302968 
L 161.068592 82.302968 
z
" style="fill:#1f77b4;"/>
   </g>
   <g id="patch_66">
    <path clip-path="url(#pe0626a3a13)" d="M 162.682292 273.312 
L 164.295992 273.312 
L 164.295992 79.330065 
L 162.682292 79.330065 
z
" style="fill:#1f77b4;"/>
   </g>
   <g id="patch_67">
    <path clip-path="url(#pe0626a3a13)" d="M 164.295992 273.312 
L 165.909692 273.312 
L 165.909692 96.424258 
L 164.295992 96.424258 
z
" style="fill:#1f77b4;"/>
   </g>
   <g id="patch_68">
    <path clip-path="url(#pe0626a3a13)" d="M 165.909692 273.312 
L 167.523392 273.312 
L 167.523392 79.330065 
L 165.909692 79.330065 
z
" style="fill:#1f77b4;"/>
   </g>
   <g id="patch_69">
    <path clip-path="url(#pe0626a3a13)" d="M 167.523392 273.312 
L 169.137092 273.312 
L 169.137092 80.816516 
L 167.523392 80.816516 
z
" style="fill:#1f77b4;"/>
   </g>
   <g id="patch_70">
    <path clip-path="url(#pe0626a3a13)" d="M 169.137092 273.312 
L 170.750792 273.312 
L 170.750792 60.749419 
L 169.137092 60.749419 
z
" style="fill:#1f77b4;"/>
   </g>
   <g id="patch_71">
    <path clip-path="url(#pe0626a3a13)" d="M 170.750792 273.312 
L 172.364492 273.312 
L 172.364492 70.411355 
L 170.750792 70.411355 
z
" style="fill:#1f77b4;"/>
   </g>
   <g id="patch_72">
    <path clip-path="url(#pe0626a3a13)" d="M 172.364492 273.312 
L 173.978192 273.312 
L 173.978192 64.465548 
L 172.364492 64.465548 
z
" style="fill:#1f77b4;"/>
   </g>
   <g id="patch_73">
    <path clip-path="url(#pe0626a3a13)" d="M 173.978192 273.312 
L 175.591892 273.312 
L 175.591892 74.127484 
L 173.978192 74.127484 
z
" style="fill:#1f77b4;"/>
   </g>
   <g id="patch_74">
    <path clip-path="url(#pe0626a3a13)" d="M 175.591892 273.312 
L 177.205591 273.312 
L 177.205591 81.559742 
L 175.591892 81.559742 
z
" style="fill:#1f77b4;"/>
   </g>
   <g id="patch_75">
    <path clip-path="url(#pe0626a3a13)" d="M 177.205591 273.312 
L 178.819291 273.312 
L 178.819291 54.803613 
L 177.205591 54.803613 
z
" style="fill:#1f77b4;"/>
   </g>
   <g id="patch_76">
    <path clip-path="url(#pe0626a3a13)" d="M 178.819291 273.312 
L 180.432991 273.312 
L 180.432991 77.100387 
L 178.819291 77.100387 
z
" style="fill:#1f77b4;"/>
   </g>
   <g id="patch_77">
    <path clip-path="url(#pe0626a3a13)" d="M 180.432991 273.312 
L 182.046691 273.312 
L 182.046691 69.668129 
L 180.432991 69.668129 
z
" style="fill:#1f77b4;"/>
   </g>
   <g id="patch_78">
    <path clip-path="url(#pe0626a3a13)" d="M 182.046691 273.312 
L 183.660391 273.312 
L 183.660391 90.478452 
L 182.046691 90.478452 
z
" style="fill:#1f77b4;"/>
   </g>
   <g id="patch_79">
    <path clip-path="url(#pe0626a3a13)" d="M 183.660391 273.312 
L 185.274091 273.312 
L 185.274091 58.519742 
L 183.660391 58.519742 
z
" style="fill:#1f77b4;"/>
   </g>
   <g id="patch_80">
    <path clip-path="url(#pe0626a3a13)" d="M 185.274091 273.312 
L 186.887791 273.312 
L 186.887791 62.235871 
L 185.274091 62.235871 
z
" style="fill:#1f77b4;"/>
   </g>
   <g id="patch_81">
    <path clip-path="url(#pe0626a3a13)" d="M 186.887791 273.312 
L 188.501491 273.312 
L 188.501491 33.99329 
L 186.887791 33.99329 
z
" style="fill:#1f77b4;"/>
   </g>
   <g id="patch_82">
    <path clip-path="url(#pe0626a3a13)" d="M 188.501491 273.312 
L 190.115191 273.312 
L 190.115191 59.262968 
L 188.501491 59.262968 
z
" style="fill:#1f77b4;"/>
   </g>
   <g id="patch_83">
    <path clip-path="url(#pe0626a3a13)" d="M 190.115191 273.312 
L 191.728891 273.312 
L 191.728891 39.195871 
L 190.115191 39.195871 
z
" style="fill:#1f77b4;"/>
   </g>
   <g id="patch_84">
    <path clip-path="url(#pe0626a3a13)" d="M 191.728891 273.312 
L 193.342591 273.312 
L 193.342591 48.114581 
L 191.728891 48.114581 
z
" style="fill:#1f77b4;"/>
   </g>
   <g id="patch_85">
    <path clip-path="url(#pe0626a3a13)" d="M 193.342591 273.312 
L 194.956291 273.312 
L 194.956291 48.857806 
L 193.342591 48.857806 
z
" style="fill:#1f77b4;"/>
   </g>
   <g id="patch_86">
    <path clip-path="url(#pe0626a3a13)" d="M 194.956291 273.312 
L 196.569991 273.312 
L 196.569991 54.060387 
L 194.956291 54.060387 
z
" style="fill:#1f77b4;"/>
   </g>
   <g id="patch_87">
    <path clip-path="url(#pe0626a3a13)" d="M 196.569991 273.312 
L 198.183691 273.312 
L 198.183691 68.924903 
L 196.569991 68.924903 
z
" style="fill:#1f77b4;"/>
   </g>
   <g id="patch_88">
    <path clip-path="url(#pe0626a3a13)" d="M 198.183691 273.312 
L 199.797391 273.312 
L 199.797391 48.857806 
L 198.183691 48.857806 
z
" style="fill:#1f77b4;"/>
   </g>
   <g id="patch_89">
    <path clip-path="url(#pe0626a3a13)" d="M 199.797391 273.312 
L 201.411091 273.312 
L 201.411091 37.709419 
L 199.797391 37.709419 
z
" style="fill:#1f77b4;"/>
   </g>
   <g id="patch_90">
    <path clip-path="url(#pe0626a3a13)" d="M 201.411091 273.312 
L 203.024791 273.312 
L 203.024791 25.074581 
L 201.411091 25.074581 
z
" style="fill:#1f77b4;"/>
   </g>
   <g id="patch_91">
    <path clip-path="url(#pe0626a3a13)" d="M 203.024791 273.312 
L 204.638491 273.312 
L 204.638491 48.114581 
L 203.024791 48.114581 
z
" style="fill:#1f77b4;"/>
   </g>
   <g id="patch_92">
    <path clip-path="url(#pe0626a3a13)" d="M 204.638491 273.312 
L 206.252191 273.312 
L 206.252191 28.047484 
L 204.638491 28.047484 
z
" style="fill:#1f77b4;"/>
   </g>
   <g id="patch_93">
    <path clip-path="url(#pe0626a3a13)" d="M 206.252191 273.312 
L 207.865891 273.312 
L 207.865891 33.250065 
L 206.252191 33.250065 
z
" style="fill:#1f77b4;"/>
   </g>
   <g id="patch_94">
    <path clip-path="url(#pe0626a3a13)" d="M 207.865891 273.312 
L 209.479591 273.312 
L 209.479591 36.966194 
L 207.865891 36.966194 
z
" style="fill:#1f77b4;"/>
   </g>
   <g id="patch_95">
    <path clip-path="url(#pe0626a3a13)" d="M 209.479591 273.312 
L 211.093291 273.312 
L 211.093291 32.506839 
L 209.479591 32.506839 
z
" style="fill:#1f77b4;"/>
   </g>
   <g id="patch_96">
    <path clip-path="url(#pe0626a3a13)" d="M 211.093291 273.312 
L 212.706991 273.312 
L 212.706991 40.682323 
L 211.093291 40.682323 
z
" style="fill:#1f77b4;"/>
   </g>
   <g id="patch_97">
    <path clip-path="url(#pe0626a3a13)" d="M 212.706991 273.312 
L 214.320691 273.312 
L 214.320691 43.655226 
L 212.706991 43.655226 
z
" style="fill:#1f77b4;"/>
   </g>
   <g id="patch_98">
    <path clip-path="url(#pe0626a3a13)" d="M 214.320691 273.312 
L 215.934391 273.312 
L 215.934391 51.087484 
L 214.320691 51.087484 
z
" style="fill:#1f77b4;"/>
   </g>
   <g id="patch_99">
    <path clip-path="url(#pe0626a3a13)" d="M 215.934391 273.312 
L 217.548091 273.312 
L 217.548091 41.425548 
L 215.934391 41.425548 
z
" style="fill:#1f77b4;"/>
   </g>
   <g id="patch_100">
    <path clip-path="url(#pe0626a3a13)" d="M 217.548091 273.312 
L 219.161791 273.312 
L 219.161791 39.939097 
L 217.548091 39.939097 
z
" style="fill:#1f77b4;"/>
   </g>
   <g id="patch_101">
    <path clip-path="url(#pe0626a3a13)" d="M 219.161791 273.312 
L 220.775491 273.312 
L 220.775491 20.615226 
L 219.161791 20.615226 
z
" style="fill:#1f77b4;"/>
   </g>
   <g id="patch_102">
    <path clip-path="url(#pe0626a3a13)" d="M 220.775491 273.312 
L 222.389191 273.312 
L 222.389191 40.682323 
L 220.775491 40.682323 
z
" style="fill:#1f77b4;"/>
   </g>
   <g id="patch_103">
    <path clip-path="url(#pe0626a3a13)" d="M 222.389191 273.312 
L 224.002891 273.312 
L 224.002891 45.884903 
L 222.389191 45.884903 
z
" style="fill:#1f77b4;"/>
   </g>
   <g id="patch_104">
    <path clip-path="url(#pe0626a3a13)" d="M 224.002891 273.312 
L 225.616591 273.312 
L 225.616591 42.168774 
L 224.002891 42.168774 
z
" style="fill:#1f77b4;"/>
   </g>
   <g id="patch_105">
    <path clip-path="url(#pe0626a3a13)" d="M 225.616591 273.312 
L 227.230291 273.312 
L 227.230291 28.79071 
L 225.616591 28.79071 
z
" style="fill:#1f77b4;"/>
   </g>
   <g id="patch_106">
    <path clip-path="url(#pe0626a3a13)" d="M 227.230291 273.312 
L 228.843991 273.312 
L 228.843991 28.79071 
L 227.230291 28.79071 
z
" style="fill:#1f77b4;"/>
   </g>
   <g id="patch_107">
    <path clip-path="url(#pe0626a3a13)" d="M 228.843991 273.312 
L 230.457691 273.312 
L 230.457691 31.763613 
L 228.843991 31.763613 
z
" style="fill:#1f77b4;"/>
   </g>
   <g id="patch_108">
    <path clip-path="url(#pe0626a3a13)" d="M 230.457691 273.312 
L 232.071391 273.312 
L 232.071391 30.277161 
L 230.457691 30.277161 
z
" style="fill:#1f77b4;"/>
   </g>
   <g id="patch_109">
    <path clip-path="url(#pe0626a3a13)" d="M 232.071391 273.312 
L 233.685091 273.312 
L 233.685091 36.222968 
L 232.071391 36.222968 
z
" style="fill:#1f77b4;"/>
   </g>
   <g id="patch_110">
    <path clip-path="url(#pe0626a3a13)" d="M 233.685091 273.312 
L 235.298791 273.312 
L 235.298791 28.047484 
L 233.685091 28.047484 
z
" style="fill:#1f77b4;"/>
   </g>
   <g id="patch_111">
    <path clip-path="url(#pe0626a3a13)" d="M 235.298791 273.312 
L 236.912491 273.312 
L 236.912491 53.317161 
L 235.298791 53.317161 
z
" style="fill:#1f77b4;"/>
   </g>
   <g id="patch_112">
    <path clip-path="url(#pe0626a3a13)" d="M 236.912491 273.312 
L 238.526191 273.312 
L 238.526191 43.655226 
L 236.912491 43.655226 
z
" style="fill:#1f77b4;"/>
   </g>
   <g id="patch_113">
    <path clip-path="url(#pe0626a3a13)" d="M 238.526191 273.312 
L 240.139891 273.312 
L 240.139891 42.168774 
L 238.526191 42.168774 
z
" style="fill:#1f77b4;"/>
   </g>
   <g id="patch_114">
    <path clip-path="url(#pe0626a3a13)" d="M 240.139891 273.312 
L 241.753591 273.312 
L 241.753591 25.074581 
L 240.139891 25.074581 
z
" style="fill:#1f77b4;"/>
   </g>
   <g id="patch_115">
    <path clip-path="url(#pe0626a3a13)" d="M 241.753591 273.312 
L 243.367291 273.312 
L 243.367291 57.776516 
L 241.753591 57.776516 
z
" style="fill:#1f77b4;"/>
   </g>
   <g id="patch_116">
    <path clip-path="url(#pe0626a3a13)" d="M 243.367291 273.312 
L 244.980991 273.312 
L 244.980991 53.317161 
L 243.367291 53.317161 
z
" style="fill:#1f77b4;"/>
   </g>
   <g id="patch_117">
    <path clip-path="url(#pe0626a3a13)" d="M 244.980991 273.312 
L 246.594691 273.312 
L 246.594691 19.872 
L 244.980991 19.872 
z
" style="fill:#1f77b4;"/>
   </g>
   <g id="patch_118">
    <path clip-path="url(#pe0626a3a13)" d="M 246.594691 273.312 
L 248.208391 273.312 
L 248.208391 60.006194 
L 246.594691 60.006194 
z
" style="fill:#1f77b4;"/>
   </g>
   <g id="patch_119">
    <path clip-path="url(#pe0626a3a13)" d="M 248.208391 273.312 
L 249.822091 273.312 
L 249.822091 61.492645 
L 248.208391 61.492645 
z
" style="fill:#1f77b4;"/>
   </g>
   <g id="patch_120">
    <path clip-path="url(#pe0626a3a13)" d="M 249.822091 273.312 
L 251.435791 273.312 
L 251.435791 61.492645 
L 249.822091 61.492645 
z
" style="fill:#1f77b4;"/>
   </g>
   <g id="patch_121">
    <path clip-path="url(#pe0626a3a13)" d="M 251.435791 273.312 
L 253.049491 273.312 
L 253.049491 43.655226 
L 251.435791 43.655226 
z
" style="fill:#1f77b4;"/>
   </g>
   <g id="patch_122">
    <path clip-path="url(#pe0626a3a13)" d="M 253.049491 273.312 
L 254.66319 273.312 
L 254.66319 51.83071 
L 253.049491 51.83071 
z
" style="fill:#1f77b4;"/>
   </g>
   <g id="patch_123">
    <path clip-path="url(#pe0626a3a13)" d="M 254.66319 273.312 
L 256.27689 273.312 
L 256.27689 64.465548 
L 254.66319 64.465548 
z
" style="fill:#1f77b4;"/>
   </g>
   <g id="patch_124">
    <path clip-path="url(#pe0626a3a13)" d="M 256.27689 273.312 
L 257.89059 273.312 
L 257.89059 54.060387 
L 256.27689 54.060387 
z
" style="fill:#1f77b4;"/>
   </g>
   <g id="patch_125">
    <path clip-path="url(#pe0626a3a13)" d="M 257.89059 273.312 
L 259.50429 273.312 
L 259.50429 68.181677 
L 257.89059 68.181677 
z
" style="fill:#1f77b4;"/>
   </g>
   <g id="patch_126">
    <path clip-path="url(#pe0626a3a13)" d="M 259.50429 273.312 
L 261.11799 273.312 
L 261.11799 45.884903 
L 259.50429 45.884903 
z
" style="fill:#1f77b4;"/>
   </g>
   <g id="patch_127">
    <path clip-path="url(#pe0626a3a13)" d="M 261.11799 273.312 
L 262.73169 273.312 
L 262.73169 75.613935 
L 261.11799 75.613935 
z
" style="fill:#1f77b4;"/>
   </g>
   <g id="patch_128">
    <path clip-path="url(#pe0626a3a13)" d="M 262.73169 273.312 
L 264.34539 273.312 
L 264.34539 62.235871 
L 262.73169 62.235871 
z
" style="fill:#1f77b4;"/>
   </g>
   <g id="patch_129">
    <path clip-path="url(#pe0626a3a13)" d="M 264.34539 273.312 
L 265.95909 273.312 
L 265.95909 62.235871 
L 264.34539 62.235871 
z
" style="fill:#1f77b4;"/>
   </g>
   <g id="patch_130">
    <path clip-path="url(#pe0626a3a13)" d="M 265.95909 273.312 
L 267.57279 273.312 
L 267.57279 57.776516 
L 265.95909 57.776516 
z
" style="fill:#1f77b4;"/>
   </g>
   <g id="patch_131">
    <path clip-path="url(#pe0626a3a13)" d="M 267.57279 273.312 
L 269.18649 273.312 
L 269.18649 58.519742 
L 267.57279 58.519742 
z
" style="fill:#1f77b4;"/>
   </g>
   <g id="patch_132">
    <path clip-path="url(#pe0626a3a13)" d="M 269.18649 273.312 
L 270.80019 273.312 
L 270.80019 51.087484 
L 269.18649 51.087484 
z
" style="fill:#1f77b4;"/>
   </g>
   <g id="patch_133">
    <path clip-path="url(#pe0626a3a13)" d="M 270.80019 273.312 
L 272.41389 273.312 
L 272.41389 77.100387 
L 270.80019 77.100387 
z
" style="fill:#1f77b4;"/>
   </g>
   <g id="patch_134">
    <path clip-path="url(#pe0626a3a13)" d="M 272.41389 273.312 
L 274.02759 273.312 
L 274.02759 105.342968 
L 272.41389 105.342968 
z
" style="fill:#1f77b4;"/>
   </g>
   <g id="patch_135">
    <path clip-path="url(#pe0626a3a13)" d="M 274.02759 273.312 
L 275.64129 273.312 
L 275.64129 77.100387 
L 274.02759 77.100387 
z
" style="fill:#1f77b4;"/>
   </g>
   <g id="patch_136">
    <path clip-path="url(#pe0626a3a13)" d="M 275.64129 273.312 
L 277.25499 273.312 
L 277.25499 79.330065 
L 275.64129 79.330065 
z
" style="fill:#1f77b4;"/>
   </g>
   <g id="patch_137">
    <path clip-path="url(#pe0626a3a13)" d="M 277.25499 273.312 
L 278.86869 273.312 
L 278.86869 109.802323 
L 277.25499 109.802323 
z
" style="fill:#1f77b4;"/>
   </g>
   <g id="patch_138">
    <path clip-path="url(#pe0626a3a13)" d="M 278.86869 273.312 
L 280.48239 273.312 
L 280.48239 86.762323 
L 278.86869 86.762323 
z
" style="fill:#1f77b4;"/>
   </g>
   <g id="patch_139">
    <path clip-path="url(#pe0626a3a13)" d="M 280.48239 273.312 
L 282.09609 273.312 
L 282.09609 78.586839 
L 280.48239 78.586839 
z
" style="fill:#1f77b4;"/>
   </g>
   <g id="patch_140">
    <path clip-path="url(#pe0626a3a13)" d="M 282.09609 273.312 
L 283.70979 273.312 
L 283.70979 84.532645 
L 282.09609 84.532645 
z
" style="fill:#1f77b4;"/>
   </g>
   <g id="patch_141">
    <path clip-path="url(#pe0626a3a13)" d="M 283.70979 273.312 
L 285.32349 273.312 
L 285.32349 76.357161 
L 283.70979 76.357161 
z
" style="fill:#1f77b4;"/>
   </g>
   <g id="patch_142">
    <path clip-path="url(#pe0626a3a13)" d="M 285.32349 273.312 
L 286.93719 273.312 
L 286.93719 68.924903 
L 285.32349 68.924903 
z
" style="fill:#1f77b4;"/>
   </g>
   <g id="patch_143">
    <path clip-path="url(#pe0626a3a13)" d="M 286.93719 273.312 
L 288.55089 273.312 
L 288.55089 81.559742 
L 286.93719 81.559742 
z
" style="fill:#1f77b4;"/>
   </g>
   <g id="patch_144">
    <path clip-path="url(#pe0626a3a13)" d="M 288.55089 273.312 
L 290.16459 273.312 
L 290.16459 89.735226 
L 288.55089 89.735226 
z
" style="fill:#1f77b4;"/>
   </g>
   <g id="patch_145">
    <path clip-path="url(#pe0626a3a13)" d="M 290.16459 273.312 
L 291.77829 273.312 
L 291.77829 84.532645 
L 290.16459 84.532645 
z
" style="fill:#1f77b4;"/>
   </g>
   <g id="patch_146">
    <path clip-path="url(#pe0626a3a13)" d="M 291.77829 273.312 
L 293.39199 273.312 
L 293.39199 84.532645 
L 291.77829 84.532645 
z
" style="fill:#1f77b4;"/>
   </g>
   <g id="patch_147">
    <path clip-path="url(#pe0626a3a13)" d="M 293.39199 273.312 
L 295.00569 273.312 
L 295.00569 89.735226 
L 293.39199 89.735226 
z
" style="fill:#1f77b4;"/>
   </g>
   <g id="patch_148">
    <path clip-path="url(#pe0626a3a13)" d="M 295.00569 273.312 
L 296.61939 273.312 
L 296.61939 86.019097 
L 295.00569 86.019097 
z
" style="fill:#1f77b4;"/>
   </g>
   <g id="patch_149">
    <path clip-path="url(#pe0626a3a13)" d="M 296.61939 273.312 
L 298.23309 273.312 
L 298.23309 103.856516 
L 296.61939 103.856516 
z
" style="fill:#1f77b4;"/>
   </g>
   <g id="patch_150">
    <path clip-path="url(#pe0626a3a13)" d="M 298.23309 273.312 
L 299.84679 273.312 
L 299.84679 88.248774 
L 298.23309 88.248774 
z
" style="fill:#1f77b4;"/>
   </g>
   <g id="patch_151">
    <path clip-path="url(#pe0626a3a13)" d="M 299.84679 273.312 
L 301.46049 273.312 
L 301.46049 122.437161 
L 299.84679 122.437161 
z
" style="fill:#1f77b4;"/>
   </g>
   <g id="patch_152">
    <path clip-path="url(#pe0626a3a13)" d="M 301.46049 273.312 
L 303.07419 273.312 
L 303.07419 115.004903 
L 301.46049 115.004903 
z
" style="fill:#1f77b4;"/>
   </g>
   <g id="patch_153">
    <path clip-path="url(#pe0626a3a13)" d="M 303.07419 273.312 
L 304.68789 273.312 
L 304.68789 115.748129 
L 303.07419 115.748129 
z
" style="fill:#1f77b4;"/>
   </g>
   <g id="patch_154">
    <path clip-path="url(#pe0626a3a13)" d="M 304.68789 273.312 
L 306.30159 273.312 
L 306.30159 97.167484 
L 304.68789 97.167484 
z
" style="fill:#1f77b4;"/>
   </g>
   <g id="patch_155">
    <path clip-path="url(#pe0626a3a13)" d="M 306.30159 273.312 
L 307.91529 273.312 
L 307.91529 120.95071 
L 306.30159 120.95071 
z
" style="fill:#1f77b4;"/>
   </g>
   <g id="patch_156">
    <path clip-path="url(#pe0626a3a13)" d="M 307.91529 273.312 
L 309.52899 273.312 
L 309.52899 111.288774 
L 307.91529 111.288774 
z
" style="fill:#1f77b4;"/>
   </g>
   <g id="patch_157">
    <path clip-path="url(#pe0626a3a13)" d="M 309.52899 273.312 
L 311.14269 273.312 
L 311.14269 127.639742 
L 309.52899 127.639742 
z
" style="fill:#1f77b4;"/>
   </g>
   <g id="patch_158">
    <path clip-path="url(#pe0626a3a13)" d="M 311.14269 273.312 
L 312.75639 273.312 
L 312.75639 123.180387 
L 311.14269 123.180387 
z
" style="fill:#1f77b4;"/>
   </g>
   <g id="patch_159">
    <path clip-path="url(#pe0626a3a13)" d="M 312.75639 273.312 
L 314.37009 273.312 
L 314.37009 132.842323 
L 312.75639 132.842323 
z
" style="fill:#1f77b4;"/>
   </g>
   <g id="patch_160">
    <path clip-path="url(#pe0626a3a13)" d="M 314.37009 273.312 
L 315.98379 273.312 
L 315.98379 138.044903 
L 314.37009 138.044903 
z
" style="fill:#1f77b4;"/>
   </g>
   <g id="patch_161">
    <path clip-path="url(#pe0626a3a13)" d="M 315.98379 273.312 
L 317.59749 273.312 
L 317.59749 132.099097 
L 315.98379 132.099097 
z
" style="fill:#1f77b4;"/>
   </g>
   <g id="patch_162">
    <path clip-path="url(#pe0626a3a13)" d="M 317.59749 273.312 
L 319.21119 273.312 
L 319.21119 154.395871 
L 317.59749 154.395871 
z
" style="fill:#1f77b4;"/>
   </g>
   <g id="patch_163">
    <path clip-path="url(#pe0626a3a13)" d="M 319.21119 273.312 
L 320.82489 273.312 
L 320.82489 143.99071 
L 319.21119 143.99071 
z
" style="fill:#1f77b4;"/>
   </g>
   <g id="patch_164">
    <path clip-path="url(#pe0626a3a13)" d="M 320.82489 273.312 
L 322.43859 273.312 
L 322.43859 138.044903 
L 320.82489 138.044903 
z
" style="fill:#1f77b4;"/>
   </g>
   <g id="patch_165">
    <path clip-path="url(#pe0626a3a13)" d="M 322.43859 273.312 
L 324.05229 273.312 
L 324.05229 151.422968 
L 322.43859 151.422968 
z
" style="fill:#1f77b4;"/>
   </g>
   <g id="patch_166">
    <path clip-path="url(#pe0626a3a13)" d="M 324.05229 273.312 
L 325.66599 273.312 
L 325.66599 161.084903 
L 324.05229 161.084903 
z
" style="fill:#1f77b4;"/>
   </g>
   <g id="patch_167">
    <path clip-path="url(#pe0626a3a13)" d="M 325.66599 273.312 
L 327.27969 273.312 
L 327.27969 161.084903 
L 325.66599 161.084903 
z
" style="fill:#1f77b4;"/>
   </g>
   <g id="patch_168">
    <path clip-path="url(#pe0626a3a13)" d="M 327.27969 273.312 
L 328.89339 273.312 
L 328.89339 135.072 
L 327.27969 135.072 
z
" style="fill:#1f77b4;"/>
   </g>
   <g id="patch_169">
    <path clip-path="url(#pe0626a3a13)" d="M 328.89339 273.312 
L 330.50709 273.312 
L 330.50709 161.084903 
L 328.89339 161.084903 
z
" style="fill:#1f77b4;"/>
   </g>
   <g id="patch_170">
    <path clip-path="url(#pe0626a3a13)" d="M 330.50709 273.312 
L 332.12079 273.312 
L 332.12079 161.084903 
L 330.50709 161.084903 
z
" style="fill:#1f77b4;"/>
   </g>
   <g id="patch_171">
    <path clip-path="url(#pe0626a3a13)" d="M 332.12079 273.312 
L 333.734489 273.312 
L 333.734489 155.139097 
L 332.12079 155.139097 
z
" style="fill:#1f77b4;"/>
   </g>
   <g id="patch_172">
    <path clip-path="url(#pe0626a3a13)" d="M 333.734489 273.312 
L 335.348189 273.312 
L 335.348189 155.139097 
L 333.734489 155.139097 
z
" style="fill:#1f77b4;"/>
   </g>
   <g id="patch_173">
    <path clip-path="url(#pe0626a3a13)" d="M 335.348189 273.312 
L 336.961889 273.312 
L 336.961889 169.260387 
L 335.348189 169.260387 
z
" style="fill:#1f77b4;"/>
   </g>
   <g id="patch_174">
    <path clip-path="url(#pe0626a3a13)" d="M 336.961889 273.312 
L 338.575589 273.312 
L 338.575589 179.665548 
L 336.961889 179.665548 
z
" style="fill:#1f77b4;"/>
   </g>
   <g id="patch_175">
    <path clip-path="url(#pe0626a3a13)" d="M 338.575589 273.312 
L 340.189289 273.312 
L 340.189289 184.124903 
L 338.575589 184.124903 
z
" style="fill:#1f77b4;"/>
   </g>
   <g id="patch_176">
    <path clip-path="url(#pe0626a3a13)" d="M 340.189289 273.312 
L 341.802989 273.312 
L 341.802989 170.003613 
L 340.189289 170.003613 
z
" style="fill:#1f77b4;"/>
   </g>
   <g id="patch_177">
    <path clip-path="url(#pe0626a3a13)" d="M 341.802989 273.312 
L 343.416689 273.312 
L 343.416689 167.03071 
L 341.802989 167.03071 
z
" style="fill:#1f77b4;"/>
   </g>
   <g id="patch_178">
    <path clip-path="url(#pe0626a3a13)" d="M 343.416689 273.312 
L 345.030389 273.312 
L 345.030389 193.043613 
L 343.416689 193.043613 
z
" style="fill:#1f77b4;"/>
   </g>
   <g id="patch_179">
    <path clip-path="url(#pe0626a3a13)" d="M 345.030389 273.312 
L 346.644089 273.312 
L 346.644089 187.097806 
L 345.030389 187.097806 
z
" style="fill:#1f77b4;"/>
   </g>
   <g id="patch_180">
    <path clip-path="url(#pe0626a3a13)" d="M 346.644089 273.312 
L 348.257789 273.312 
L 348.257789 195.27329 
L 346.644089 195.27329 
z
" style="fill:#1f77b4;"/>
   </g>
   <g id="patch_181">
    <path clip-path="url(#pe0626a3a13)" d="M 348.257789 273.312 
L 349.871489 273.312 
L 349.871489 194.530065 
L 348.257789 194.530065 
z
" style="fill:#1f77b4;"/>
   </g>
   <g id="patch_182">
    <path clip-path="url(#pe0626a3a13)" d="M 349.871489 273.312 
L 351.485189 273.312 
L 351.485189 211.624258 
L 349.871489 211.624258 
z
" style="fill:#1f77b4;"/>
   </g>
   <g id="patch_183">
    <path clip-path="url(#pe0626a3a13)" d="M 351.485189 273.312 
L 353.098889 273.312 
L 353.098889 210.881032 
L 351.485189 210.881032 
z
" style="fill:#1f77b4;"/>
   </g>
   <g id="patch_184">
    <path clip-path="url(#pe0626a3a13)" d="M 353.098889 273.312 
L 354.712589 273.312 
L 354.712589 206.421677 
L 353.098889 206.421677 
z
" style="fill:#1f77b4;"/>
   </g>
   <g id="patch_185">
    <path clip-path="url(#pe0626a3a13)" d="M 354.712589 273.312 
L 356.326289 273.312 
L 356.326289 206.421677 
L 354.712589 206.421677 
z
" style="fill:#1f77b4;"/>
   </g>
   <g id="patch_186">
    <path clip-path="url(#pe0626a3a13)" d="M 356.326289 273.312 
L 357.939989 273.312 
L 357.939989 206.421677 
L 356.326289 206.421677 
z
" style="fill:#1f77b4;"/>
   </g>
   <g id="patch_187">
    <path clip-path="url(#pe0626a3a13)" d="M 357.939989 273.312 
L 359.553689 273.312 
L 359.553689 213.853935 
L 357.939989 213.853935 
z
" style="fill:#1f77b4;"/>
   </g>
   <g id="patch_188">
    <path clip-path="url(#pe0626a3a13)" d="M 359.553689 273.312 
L 361.167389 273.312 
L 361.167389 228.718452 
L 359.553689 228.718452 
z
" style="fill:#1f77b4;"/>
   </g>
   <g id="patch_189">
    <path clip-path="url(#pe0626a3a13)" d="M 361.167389 273.312 
L 362.781089 273.312 
L 362.781089 217.570065 
L 361.167389 217.570065 
z
" style="fill:#1f77b4;"/>
   </g>
   <g id="patch_190">
    <path clip-path="url(#pe0626a3a13)" d="M 362.781089 273.312 
L 364.394789 273.312 
L 364.394789 215.340387 
L 362.781089 215.340387 
z
" style="fill:#1f77b4;"/>
   </g>
   <g id="patch_191">
    <path clip-path="url(#pe0626a3a13)" d="M 364.394789 273.312 
L 366.008489 273.312 
L 366.008489 224.259097 
L 364.394789 224.259097 
z
" style="fill:#1f77b4;"/>
   </g>
   <g id="patch_192">
    <path clip-path="url(#pe0626a3a13)" d="M 366.008489 273.312 
L 367.622189 273.312 
L 367.622189 236.893935 
L 366.008489 236.893935 
z
" style="fill:#1f77b4;"/>
   </g>
   <g id="patch_193">
    <path clip-path="url(#pe0626a3a13)" d="M 367.622189 273.312 
L 369.235889 273.312 
L 369.235889 239.866839 
L 367.622189 239.866839 
z
" style="fill:#1f77b4;"/>
   </g>
   <g id="patch_194">
    <path clip-path="url(#pe0626a3a13)" d="M 369.235889 273.312 
L 370.849589 273.312 
L 370.849589 237.637161 
L 369.235889 237.637161 
z
" style="fill:#1f77b4;"/>
   </g>
   <g id="patch_195">
    <path clip-path="url(#pe0626a3a13)" d="M 370.849589 273.312 
L 372.463289 273.312 
L 372.463289 242.839742 
L 370.849589 242.839742 
z
" style="fill:#1f77b4;"/>
   </g>
   <g id="patch_196">
    <path clip-path="url(#pe0626a3a13)" d="M 372.463289 273.312 
L 374.076989 273.312 
L 374.076989 243.582968 
L 372.463289 243.582968 
z
" style="fill:#1f77b4;"/>
   </g>
   <g id="patch_197">
    <path clip-path="url(#pe0626a3a13)" d="M 374.076989 273.312 
L 375.690689 273.312 
L 375.690689 254.731355 
L 374.076989 254.731355 
z
" style="fill:#1f77b4;"/>
   </g>
   <g id="patch_198">
    <path clip-path="url(#pe0626a3a13)" d="M 375.690689 273.312 
L 377.304389 273.312 
L 377.304389 259.933935 
L 375.690689 259.933935 
z
" style="fill:#1f77b4;"/>
   </g>
   <g id="patch_199">
    <path clip-path="url(#pe0626a3a13)" d="M 377.304389 273.312 
L 378.918089 273.312 
L 378.918089 251.015226 
L 377.304389 251.015226 
z
" style="fill:#1f77b4;"/>
   </g>
   <g id="patch_200">
    <path clip-path="url(#pe0626a3a13)" d="M 378.918089 273.312 
L 380.531789 273.312 
L 380.531789 262.906839 
L 378.918089 262.906839 
z
" style="fill:#1f77b4;"/>
   </g>
   <g id="patch_201">
    <path clip-path="url(#pe0626a3a13)" d="M 380.531789 273.312 
L 382.145489 273.312 
L 382.145489 267.366194 
L 380.531789 267.366194 
z
" style="fill:#1f77b4;"/>
   </g>
   <g id="patch_202">
    <path clip-path="url(#pe0626a3a13)" d="M 382.145489 273.312 
L 383.759189 273.312 
L 383.759189 268.852645 
L 382.145489 268.852645 
z
" style="fill:#1f77b4;"/>
   </g>
   <g id="matplotlib.axis_1">
    <g id="xtick_1">
     <g id="line2d_1">
      <defs>
       <path d="M 0 0 
L 0 3.5 
" id="m0fd2ab9deb" style="stroke:#000000;stroke-width:0.8;"/>
      </defs>
      <g>
       <use style="stroke:#000000;stroke-width:0.8;" x="60.013977" xlink:href="#m0fd2ab9deb" y="273.312"/>
      </g>
     </g>
     <g id="text_1">
      <!-- 0.0 -->
      <g transform="translate(52.062415 287.910437)scale(0.1 -0.1)">
       <defs>
        <path d="M 2034 4250 
Q 1547 4250 1301 3770 
Q 1056 3291 1056 2328 
Q 1056 1369 1301 889 
Q 1547 409 2034 409 
Q 2525 409 2770 889 
Q 3016 1369 3016 2328 
Q 3016 3291 2770 3770 
Q 2525 4250 2034 4250 
z
M 2034 4750 
Q 2819 4750 3233 4129 
Q 3647 3509 3647 2328 
Q 3647 1150 3233 529 
Q 2819 -91 2034 -91 
Q 1250 -91 836 529 
Q 422 1150 422 2328 
Q 422 3509 836 4129 
Q 1250 4750 2034 4750 
z
" id="DejaVuSans-30" transform="scale(0.015625)"/>
        <path d="M 684 794 
L 1344 794 
L 1344 0 
L 684 0 
L 684 794 
z
" id="DejaVuSans-2e" transform="scale(0.015625)"/>
       </defs>
       <use xlink:href="#DejaVuSans-30"/>
       <use x="63.623047" xlink:href="#DejaVuSans-2e"/>
       <use x="95.410156" xlink:href="#DejaVuSans-30"/>
      </g>
     </g>
    </g>
    <g id="xtick_2">
     <g id="line2d_2">
      <g>
       <use style="stroke:#000000;stroke-width:0.8;" x="101.350278" xlink:href="#m0fd2ab9deb" y="273.312"/>
      </g>
     </g>
     <g id="text_2">
      <!-- 0.2 -->
      <g transform="translate(93.398715 287.910437)scale(0.1 -0.1)">
       <defs>
        <path d="M 1228 531 
L 3431 531 
L 3431 0 
L 469 0 
L 469 531 
Q 828 903 1448 1529 
Q 2069 2156 2228 2338 
Q 2531 2678 2651 2914 
Q 2772 3150 2772 3378 
Q 2772 3750 2511 3984 
Q 2250 4219 1831 4219 
Q 1534 4219 1204 4116 
Q 875 4013 500 3803 
L 500 4441 
Q 881 4594 1212 4672 
Q 1544 4750 1819 4750 
Q 2544 4750 2975 4387 
Q 3406 4025 3406 3419 
Q 3406 3131 3298 2873 
Q 3191 2616 2906 2266 
Q 2828 2175 2409 1742 
Q 1991 1309 1228 531 
z
" id="DejaVuSans-32" transform="scale(0.015625)"/>
       </defs>
       <use xlink:href="#DejaVuSans-30"/>
       <use x="63.623047" xlink:href="#DejaVuSans-2e"/>
       <use x="95.410156" xlink:href="#DejaVuSans-32"/>
      </g>
     </g>
    </g>
    <g id="xtick_3">
     <g id="line2d_3">
      <g>
       <use style="stroke:#000000;stroke-width:0.8;" x="142.686578" xlink:href="#m0fd2ab9deb" y="273.312"/>
      </g>
     </g>
     <g id="text_3">
      <!-- 0.4 -->
      <g transform="translate(134.735016 287.910437)scale(0.1 -0.1)">
       <defs>
        <path d="M 2419 4116 
L 825 1625 
L 2419 1625 
L 2419 4116 
z
M 2253 4666 
L 3047 4666 
L 3047 1625 
L 3713 1625 
L 3713 1100 
L 3047 1100 
L 3047 0 
L 2419 0 
L 2419 1100 
L 313 1100 
L 313 1709 
L 2253 4666 
z
" id="DejaVuSans-34" transform="scale(0.015625)"/>
       </defs>
       <use xlink:href="#DejaVuSans-30"/>
       <use x="63.623047" xlink:href="#DejaVuSans-2e"/>
       <use x="95.410156" xlink:href="#DejaVuSans-34"/>
      </g>
     </g>
    </g>
    <g id="xtick_4">
     <g id="line2d_4">
      <g>
       <use style="stroke:#000000;stroke-width:0.8;" x="184.022879" xlink:href="#m0fd2ab9deb" y="273.312"/>
      </g>
     </g>
     <g id="text_4">
      <!-- 0.6 -->
      <g transform="translate(176.071316 287.910437)scale(0.1 -0.1)">
       <defs>
        <path d="M 2113 2584 
Q 1688 2584 1439 2293 
Q 1191 2003 1191 1497 
Q 1191 994 1439 701 
Q 1688 409 2113 409 
Q 2538 409 2786 701 
Q 3034 994 3034 1497 
Q 3034 2003 2786 2293 
Q 2538 2584 2113 2584 
z
M 3366 4563 
L 3366 3988 
Q 3128 4100 2886 4159 
Q 2644 4219 2406 4219 
Q 1781 4219 1451 3797 
Q 1122 3375 1075 2522 
Q 1259 2794 1537 2939 
Q 1816 3084 2150 3084 
Q 2853 3084 3261 2657 
Q 3669 2231 3669 1497 
Q 3669 778 3244 343 
Q 2819 -91 2113 -91 
Q 1303 -91 875 529 
Q 447 1150 447 2328 
Q 447 3434 972 4092 
Q 1497 4750 2381 4750 
Q 2619 4750 2861 4703 
Q 3103 4656 3366 4563 
z
" id="DejaVuSans-36" transform="scale(0.015625)"/>
       </defs>
       <use xlink:href="#DejaVuSans-30"/>
       <use x="63.623047" xlink:href="#DejaVuSans-2e"/>
       <use x="95.410156" xlink:href="#DejaVuSans-36"/>
      </g>
     </g>
    </g>
    <g id="xtick_5">
     <g id="line2d_5">
      <g>
       <use style="stroke:#000000;stroke-width:0.8;" x="225.35918" xlink:href="#m0fd2ab9deb" y="273.312"/>
      </g>
     </g>
     <g id="text_5">
      <!-- 0.8 -->
      <g transform="translate(217.407617 287.910437)scale(0.1 -0.1)">
       <defs>
        <path d="M 2034 2216 
Q 1584 2216 1326 1975 
Q 1069 1734 1069 1313 
Q 1069 891 1326 650 
Q 1584 409 2034 409 
Q 2484 409 2743 651 
Q 3003 894 3003 1313 
Q 3003 1734 2745 1975 
Q 2488 2216 2034 2216 
z
M 1403 2484 
Q 997 2584 770 2862 
Q 544 3141 544 3541 
Q 544 4100 942 4425 
Q 1341 4750 2034 4750 
Q 2731 4750 3128 4425 
Q 3525 4100 3525 3541 
Q 3525 3141 3298 2862 
Q 3072 2584 2669 2484 
Q 3125 2378 3379 2068 
Q 3634 1759 3634 1313 
Q 3634 634 3220 271 
Q 2806 -91 2034 -91 
Q 1263 -91 848 271 
Q 434 634 434 1313 
Q 434 1759 690 2068 
Q 947 2378 1403 2484 
z
M 1172 3481 
Q 1172 3119 1398 2916 
Q 1625 2713 2034 2713 
Q 2441 2713 2670 2916 
Q 2900 3119 2900 3481 
Q 2900 3844 2670 4047 
Q 2441 4250 2034 4250 
Q 1625 4250 1398 4047 
Q 1172 3844 1172 3481 
z
" id="DejaVuSans-38" transform="scale(0.015625)"/>
       </defs>
       <use xlink:href="#DejaVuSans-30"/>
       <use x="63.623047" xlink:href="#DejaVuSans-2e"/>
       <use x="95.410156" xlink:href="#DejaVuSans-38"/>
      </g>
     </g>
    </g>
    <g id="xtick_6">
     <g id="line2d_6">
      <g>
       <use style="stroke:#000000;stroke-width:0.8;" x="266.69548" xlink:href="#m0fd2ab9deb" y="273.312"/>
      </g>
     </g>
     <g id="text_6">
      <!-- 1.0 -->
      <g transform="translate(258.743918 287.910437)scale(0.1 -0.1)">
       <defs>
        <path d="M 794 531 
L 1825 531 
L 1825 4091 
L 703 3866 
L 703 4441 
L 1819 4666 
L 2450 4666 
L 2450 531 
L 3481 531 
L 3481 0 
L 794 0 
L 794 531 
z
" id="DejaVuSans-31" transform="scale(0.015625)"/>
       </defs>
       <use xlink:href="#DejaVuSans-31"/>
       <use x="63.623047" xlink:href="#DejaVuSans-2e"/>
       <use x="95.410156" xlink:href="#DejaVuSans-30"/>
      </g>
     </g>
    </g>
    <g id="xtick_7">
     <g id="line2d_7">
      <g>
       <use style="stroke:#000000;stroke-width:0.8;" x="308.031781" xlink:href="#m0fd2ab9deb" y="273.312"/>
      </g>
     </g>
     <g id="text_7">
      <!-- 1.2 -->
      <g transform="translate(300.080218 287.910437)scale(0.1 -0.1)">
       <use xlink:href="#DejaVuSans-31"/>
       <use x="63.623047" xlink:href="#DejaVuSans-2e"/>
       <use x="95.410156" xlink:href="#DejaVuSans-32"/>
      </g>
     </g>
    </g>
    <g id="xtick_8">
     <g id="line2d_8">
      <g>
       <use style="stroke:#000000;stroke-width:0.8;" x="349.368081" xlink:href="#m0fd2ab9deb" y="273.312"/>
      </g>
     </g>
     <g id="text_8">
      <!-- 1.4 -->
      <g transform="translate(341.416519 287.910437)scale(0.1 -0.1)">
       <use xlink:href="#DejaVuSans-31"/>
       <use x="63.623047" xlink:href="#DejaVuSans-2e"/>
       <use x="95.410156" xlink:href="#DejaVuSans-34"/>
      </g>
     </g>
    </g>
    <g id="xtick_9">
     <g id="line2d_9">
      <g>
       <use style="stroke:#000000;stroke-width:0.8;" x="390.704382" xlink:href="#m0fd2ab9deb" y="273.312"/>
      </g>
     </g>
     <g id="text_9">
      <!-- 1.6 -->
      <g transform="translate(382.752819 287.910437)scale(0.1 -0.1)">
       <use xlink:href="#DejaVuSans-31"/>
       <use x="63.623047" xlink:href="#DejaVuSans-2e"/>
       <use x="95.410156" xlink:href="#DejaVuSans-36"/>
      </g>
     </g>
    </g>
    <g id="text_10">
     <!-- Angle with normal (rad) -->
     <g transform="translate(163.023281 301.588562)scale(0.1 -0.1)">
      <defs>
       <path d="M 2188 4044 
L 1331 1722 
L 3047 1722 
L 2188 4044 
z
M 1831 4666 
L 2547 4666 
L 4325 0 
L 3669 0 
L 3244 1197 
L 1141 1197 
L 716 0 
L 50 0 
L 1831 4666 
z
" id="DejaVuSans-41" transform="scale(0.015625)"/>
       <path d="M 3513 2113 
L 3513 0 
L 2938 0 
L 2938 2094 
Q 2938 2591 2744 2837 
Q 2550 3084 2163 3084 
Q 1697 3084 1428 2787 
Q 1159 2491 1159 1978 
L 1159 0 
L 581 0 
L 581 3500 
L 1159 3500 
L 1159 2956 
Q 1366 3272 1645 3428 
Q 1925 3584 2291 3584 
Q 2894 3584 3203 3211 
Q 3513 2838 3513 2113 
z
" id="DejaVuSans-6e" transform="scale(0.015625)"/>
       <path d="M 2906 1791 
Q 2906 2416 2648 2759 
Q 2391 3103 1925 3103 
Q 1463 3103 1205 2759 
Q 947 2416 947 1791 
Q 947 1169 1205 825 
Q 1463 481 1925 481 
Q 2391 481 2648 825 
Q 2906 1169 2906 1791 
z
M 3481 434 
Q 3481 -459 3084 -895 
Q 2688 -1331 1869 -1331 
Q 1566 -1331 1297 -1286 
Q 1028 -1241 775 -1147 
L 775 -588 
Q 1028 -725 1275 -790 
Q 1522 -856 1778 -856 
Q 2344 -856 2625 -561 
Q 2906 -266 2906 331 
L 2906 616 
Q 2728 306 2450 153 
Q 2172 0 1784 0 
Q 1141 0 747 490 
Q 353 981 353 1791 
Q 353 2603 747 3093 
Q 1141 3584 1784 3584 
Q 2172 3584 2450 3431 
Q 2728 3278 2906 2969 
L 2906 3500 
L 3481 3500 
L 3481 434 
z
" id="DejaVuSans-67" transform="scale(0.015625)"/>
       <path d="M 603 4863 
L 1178 4863 
L 1178 0 
L 603 0 
L 603 4863 
z
" id="DejaVuSans-6c" transform="scale(0.015625)"/>
       <path d="M 3597 1894 
L 3597 1613 
L 953 1613 
Q 991 1019 1311 708 
Q 1631 397 2203 397 
Q 2534 397 2845 478 
Q 3156 559 3463 722 
L 3463 178 
Q 3153 47 2828 -22 
Q 2503 -91 2169 -91 
Q 1331 -91 842 396 
Q 353 884 353 1716 
Q 353 2575 817 3079 
Q 1281 3584 2069 3584 
Q 2775 3584 3186 3129 
Q 3597 2675 3597 1894 
z
M 3022 2063 
Q 3016 2534 2758 2815 
Q 2500 3097 2075 3097 
Q 1594 3097 1305 2825 
Q 1016 2553 972 2059 
L 3022 2063 
z
" id="DejaVuSans-65" transform="scale(0.015625)"/>
       <path id="DejaVuSans-20" transform="scale(0.015625)"/>
       <path d="M 269 3500 
L 844 3500 
L 1563 769 
L 2278 3500 
L 2956 3500 
L 3675 769 
L 4391 3500 
L 4966 3500 
L 4050 0 
L 3372 0 
L 2619 2869 
L 1863 0 
L 1184 0 
L 269 3500 
z
" id="DejaVuSans-77" transform="scale(0.015625)"/>
       <path d="M 603 3500 
L 1178 3500 
L 1178 0 
L 603 0 
L 603 3500 
z
M 603 4863 
L 1178 4863 
L 1178 4134 
L 603 4134 
L 603 4863 
z
" id="DejaVuSans-69" transform="scale(0.015625)"/>
       <path d="M 1172 4494 
L 1172 3500 
L 2356 3500 
L 2356 3053 
L 1172 3053 
L 1172 1153 
Q 1172 725 1289 603 
Q 1406 481 1766 481 
L 2356 481 
L 2356 0 
L 1766 0 
Q 1100 0 847 248 
Q 594 497 594 1153 
L 594 3053 
L 172 3053 
L 172 3500 
L 594 3500 
L 594 4494 
L 1172 4494 
z
" id="DejaVuSans-74" transform="scale(0.015625)"/>
       <path d="M 3513 2113 
L 3513 0 
L 2938 0 
L 2938 2094 
Q 2938 2591 2744 2837 
Q 2550 3084 2163 3084 
Q 1697 3084 1428 2787 
Q 1159 2491 1159 1978 
L 1159 0 
L 581 0 
L 581 4863 
L 1159 4863 
L 1159 2956 
Q 1366 3272 1645 3428 
Q 1925 3584 2291 3584 
Q 2894 3584 3203 3211 
Q 3513 2838 3513 2113 
z
" id="DejaVuSans-68" transform="scale(0.015625)"/>
       <path d="M 1959 3097 
Q 1497 3097 1228 2736 
Q 959 2375 959 1747 
Q 959 1119 1226 758 
Q 1494 397 1959 397 
Q 2419 397 2687 759 
Q 2956 1122 2956 1747 
Q 2956 2369 2687 2733 
Q 2419 3097 1959 3097 
z
M 1959 3584 
Q 2709 3584 3137 3096 
Q 3566 2609 3566 1747 
Q 3566 888 3137 398 
Q 2709 -91 1959 -91 
Q 1206 -91 779 398 
Q 353 888 353 1747 
Q 353 2609 779 3096 
Q 1206 3584 1959 3584 
z
" id="DejaVuSans-6f" transform="scale(0.015625)"/>
       <path d="M 2631 2963 
Q 2534 3019 2420 3045 
Q 2306 3072 2169 3072 
Q 1681 3072 1420 2755 
Q 1159 2438 1159 1844 
L 1159 0 
L 581 0 
L 581 3500 
L 1159 3500 
L 1159 2956 
Q 1341 3275 1631 3429 
Q 1922 3584 2338 3584 
Q 2397 3584 2469 3576 
Q 2541 3569 2628 3553 
L 2631 2963 
z
" id="DejaVuSans-72" transform="scale(0.015625)"/>
       <path d="M 3328 2828 
Q 3544 3216 3844 3400 
Q 4144 3584 4550 3584 
Q 5097 3584 5394 3201 
Q 5691 2819 5691 2113 
L 5691 0 
L 5113 0 
L 5113 2094 
Q 5113 2597 4934 2840 
Q 4756 3084 4391 3084 
Q 3944 3084 3684 2787 
Q 3425 2491 3425 1978 
L 3425 0 
L 2847 0 
L 2847 2094 
Q 2847 2600 2669 2842 
Q 2491 3084 2119 3084 
Q 1678 3084 1418 2786 
Q 1159 2488 1159 1978 
L 1159 0 
L 581 0 
L 581 3500 
L 1159 3500 
L 1159 2956 
Q 1356 3278 1631 3431 
Q 1906 3584 2284 3584 
Q 2666 3584 2933 3390 
Q 3200 3197 3328 2828 
z
" id="DejaVuSans-6d" transform="scale(0.015625)"/>
       <path d="M 2194 1759 
Q 1497 1759 1228 1600 
Q 959 1441 959 1056 
Q 959 750 1161 570 
Q 1363 391 1709 391 
Q 2188 391 2477 730 
Q 2766 1069 2766 1631 
L 2766 1759 
L 2194 1759 
z
M 3341 1997 
L 3341 0 
L 2766 0 
L 2766 531 
Q 2569 213 2275 61 
Q 1981 -91 1556 -91 
Q 1019 -91 701 211 
Q 384 513 384 1019 
Q 384 1609 779 1909 
Q 1175 2209 1959 2209 
L 2766 2209 
L 2766 2266 
Q 2766 2663 2505 2880 
Q 2244 3097 1772 3097 
Q 1472 3097 1187 3025 
Q 903 2953 641 2809 
L 641 3341 
Q 956 3463 1253 3523 
Q 1550 3584 1831 3584 
Q 2591 3584 2966 3190 
Q 3341 2797 3341 1997 
z
" id="DejaVuSans-61" transform="scale(0.015625)"/>
       <path d="M 1984 4856 
Q 1566 4138 1362 3434 
Q 1159 2731 1159 2009 
Q 1159 1288 1364 580 
Q 1569 -128 1984 -844 
L 1484 -844 
Q 1016 -109 783 600 
Q 550 1309 550 2009 
Q 550 2706 781 3412 
Q 1013 4119 1484 4856 
L 1984 4856 
z
" id="DejaVuSans-28" transform="scale(0.015625)"/>
       <path d="M 2906 2969 
L 2906 4863 
L 3481 4863 
L 3481 0 
L 2906 0 
L 2906 525 
Q 2725 213 2448 61 
Q 2172 -91 1784 -91 
Q 1150 -91 751 415 
Q 353 922 353 1747 
Q 353 2572 751 3078 
Q 1150 3584 1784 3584 
Q 2172 3584 2448 3432 
Q 2725 3281 2906 2969 
z
M 947 1747 
Q 947 1113 1208 752 
Q 1469 391 1925 391 
Q 2381 391 2643 752 
Q 2906 1113 2906 1747 
Q 2906 2381 2643 2742 
Q 2381 3103 1925 3103 
Q 1469 3103 1208 2742 
Q 947 2381 947 1747 
z
" id="DejaVuSans-64" transform="scale(0.015625)"/>
       <path d="M 513 4856 
L 1013 4856 
Q 1481 4119 1714 3412 
Q 1947 2706 1947 2009 
Q 1947 1309 1714 600 
Q 1481 -109 1013 -844 
L 513 -844 
Q 928 -128 1133 580 
Q 1338 1288 1338 2009 
Q 1338 2731 1133 3434 
Q 928 4138 513 4856 
z
" id="DejaVuSans-29" transform="scale(0.015625)"/>
      </defs>
      <use xlink:href="#DejaVuSans-41"/>
      <use x="68.408203" xlink:href="#DejaVuSans-6e"/>
      <use x="131.787109" xlink:href="#DejaVuSans-67"/>
      <use x="195.263672" xlink:href="#DejaVuSans-6c"/>
      <use x="223.046875" xlink:href="#DejaVuSans-65"/>
      <use x="284.570312" xlink:href="#DejaVuSans-20"/>
      <use x="316.357422" xlink:href="#DejaVuSans-77"/>
      <use x="398.144531" xlink:href="#DejaVuSans-69"/>
      <use x="425.927734" xlink:href="#DejaVuSans-74"/>
      <use x="465.136719" xlink:href="#DejaVuSans-68"/>
      <use x="528.515625" xlink:href="#DejaVuSans-20"/>
      <use x="560.302734" xlink:href="#DejaVuSans-6e"/>
      <use x="623.681641" xlink:href="#DejaVuSans-6f"/>
      <use x="684.863281" xlink:href="#DejaVuSans-72"/>
      <use x="724.226562" xlink:href="#DejaVuSans-6d"/>
      <use x="821.638672" xlink:href="#DejaVuSans-61"/>
      <use x="882.917969" xlink:href="#DejaVuSans-6c"/>
      <use x="910.701172" xlink:href="#DejaVuSans-20"/>
      <use x="942.488281" xlink:href="#DejaVuSans-28"/>
      <use x="981.501953" xlink:href="#DejaVuSans-72"/>
      <use x="1022.615234" xlink:href="#DejaVuSans-61"/>
      <use x="1083.894531" xlink:href="#DejaVuSans-64"/>
      <use x="1147.371094" xlink:href="#DejaVuSans-29"/>
     </g>
    </g>
   </g>
   <g id="matplotlib.axis_2">
    <g id="ytick_1">
     <g id="line2d_10">
      <defs>
       <path d="M 0 0 
L -3.5 0 
" id="m187a47126b" style="stroke:#000000;stroke-width:0.8;"/>
      </defs>
      <g>
       <use style="stroke:#000000;stroke-width:0.8;" x="43.78125" xlink:href="#m187a47126b" y="273.312"/>
      </g>
     </g>
     <g id="text_11">
      <!-- 0.0 -->
      <g transform="translate(20.878125 277.111219)scale(0.1 -0.1)">
       <use xlink:href="#DejaVuSans-30"/>
       <use x="63.623047" xlink:href="#DejaVuSans-2e"/>
       <use x="95.410156" xlink:href="#DejaVuSans-30"/>
      </g>
     </g>
    </g>
    <g id="ytick_2">
     <g id="line2d_11">
      <g>
       <use style="stroke:#000000;stroke-width:0.8;" x="43.78125" xlink:href="#m187a47126b" y="226.889134"/>
      </g>
     </g>
     <g id="text_12">
      <!-- 0.2 -->
      <g transform="translate(20.878125 230.688353)scale(0.1 -0.1)">
       <use xlink:href="#DejaVuSans-30"/>
       <use x="63.623047" xlink:href="#DejaVuSans-2e"/>
       <use x="95.410156" xlink:href="#DejaVuSans-32"/>
      </g>
     </g>
    </g>
    <g id="ytick_3">
     <g id="line2d_12">
      <g>
       <use style="stroke:#000000;stroke-width:0.8;" x="43.78125" xlink:href="#m187a47126b" y="180.466268"/>
      </g>
     </g>
     <g id="text_13">
      <!-- 0.4 -->
      <g transform="translate(20.878125 184.265486)scale(0.1 -0.1)">
       <use xlink:href="#DejaVuSans-30"/>
       <use x="63.623047" xlink:href="#DejaVuSans-2e"/>
       <use x="95.410156" xlink:href="#DejaVuSans-34"/>
      </g>
     </g>
    </g>
    <g id="ytick_4">
     <g id="line2d_13">
      <g>
       <use style="stroke:#000000;stroke-width:0.8;" x="43.78125" xlink:href="#m187a47126b" y="134.043401"/>
      </g>
     </g>
     <g id="text_14">
      <!-- 0.6 -->
      <g transform="translate(20.878125 137.84262)scale(0.1 -0.1)">
       <use xlink:href="#DejaVuSans-30"/>
       <use x="63.623047" xlink:href="#DejaVuSans-2e"/>
       <use x="95.410156" xlink:href="#DejaVuSans-36"/>
      </g>
     </g>
    </g>
    <g id="ytick_5">
     <g id="line2d_14">
      <g>
       <use style="stroke:#000000;stroke-width:0.8;" x="43.78125" xlink:href="#m187a47126b" y="87.620535"/>
      </g>
     </g>
     <g id="text_15">
      <!-- 0.8 -->
      <g transform="translate(20.878125 91.419754)scale(0.1 -0.1)">
       <use xlink:href="#DejaVuSans-30"/>
       <use x="63.623047" xlink:href="#DejaVuSans-2e"/>
       <use x="95.410156" xlink:href="#DejaVuSans-38"/>
      </g>
     </g>
    </g>
    <g id="ytick_6">
     <g id="line2d_15">
      <g>
       <use style="stroke:#000000;stroke-width:0.8;" x="43.78125" xlink:href="#m187a47126b" y="41.197669"/>
      </g>
     </g>
     <g id="text_16">
      <!-- 1.0 -->
      <g transform="translate(20.878125 44.996888)scale(0.1 -0.1)">
       <use xlink:href="#DejaVuSans-31"/>
       <use x="63.623047" xlink:href="#DejaVuSans-2e"/>
       <use x="95.410156" xlink:href="#DejaVuSans-30"/>
      </g>
     </g>
    </g>
    <g id="text_17">
     <!-- Probability density -->
     <g transform="translate(14.798438 186.606781)rotate(-90)scale(0.1 -0.1)">
      <defs>
       <path d="M 1259 4147 
L 1259 2394 
L 2053 2394 
Q 2494 2394 2734 2622 
Q 2975 2850 2975 3272 
Q 2975 3691 2734 3919 
Q 2494 4147 2053 4147 
L 1259 4147 
z
M 628 4666 
L 2053 4666 
Q 2838 4666 3239 4311 
Q 3641 3956 3641 3272 
Q 3641 2581 3239 2228 
Q 2838 1875 2053 1875 
L 1259 1875 
L 1259 0 
L 628 0 
L 628 4666 
z
" id="DejaVuSans-50" transform="scale(0.015625)"/>
       <path d="M 3116 1747 
Q 3116 2381 2855 2742 
Q 2594 3103 2138 3103 
Q 1681 3103 1420 2742 
Q 1159 2381 1159 1747 
Q 1159 1113 1420 752 
Q 1681 391 2138 391 
Q 2594 391 2855 752 
Q 3116 1113 3116 1747 
z
M 1159 2969 
Q 1341 3281 1617 3432 
Q 1894 3584 2278 3584 
Q 2916 3584 3314 3078 
Q 3713 2572 3713 1747 
Q 3713 922 3314 415 
Q 2916 -91 2278 -91 
Q 1894 -91 1617 61 
Q 1341 213 1159 525 
L 1159 0 
L 581 0 
L 581 4863 
L 1159 4863 
L 1159 2969 
z
" id="DejaVuSans-62" transform="scale(0.015625)"/>
       <path d="M 2059 -325 
Q 1816 -950 1584 -1140 
Q 1353 -1331 966 -1331 
L 506 -1331 
L 506 -850 
L 844 -850 
Q 1081 -850 1212 -737 
Q 1344 -625 1503 -206 
L 1606 56 
L 191 3500 
L 800 3500 
L 1894 763 
L 2988 3500 
L 3597 3500 
L 2059 -325 
z
" id="DejaVuSans-79" transform="scale(0.015625)"/>
       <path d="M 2834 3397 
L 2834 2853 
Q 2591 2978 2328 3040 
Q 2066 3103 1784 3103 
Q 1356 3103 1142 2972 
Q 928 2841 928 2578 
Q 928 2378 1081 2264 
Q 1234 2150 1697 2047 
L 1894 2003 
Q 2506 1872 2764 1633 
Q 3022 1394 3022 966 
Q 3022 478 2636 193 
Q 2250 -91 1575 -91 
Q 1294 -91 989 -36 
Q 684 19 347 128 
L 347 722 
Q 666 556 975 473 
Q 1284 391 1588 391 
Q 1994 391 2212 530 
Q 2431 669 2431 922 
Q 2431 1156 2273 1281 
Q 2116 1406 1581 1522 
L 1381 1569 
Q 847 1681 609 1914 
Q 372 2147 372 2553 
Q 372 3047 722 3315 
Q 1072 3584 1716 3584 
Q 2034 3584 2315 3537 
Q 2597 3491 2834 3397 
z
" id="DejaVuSans-73" transform="scale(0.015625)"/>
      </defs>
      <use xlink:href="#DejaVuSans-50"/>
      <use x="58.552734" xlink:href="#DejaVuSans-72"/>
      <use x="97.416016" xlink:href="#DejaVuSans-6f"/>
      <use x="158.597656" xlink:href="#DejaVuSans-62"/>
      <use x="222.074219" xlink:href="#DejaVuSans-61"/>
      <use x="283.353516" xlink:href="#DejaVuSans-62"/>
      <use x="346.830078" xlink:href="#DejaVuSans-69"/>
      <use x="374.613281" xlink:href="#DejaVuSans-6c"/>
      <use x="402.396484" xlink:href="#DejaVuSans-69"/>
      <use x="430.179688" xlink:href="#DejaVuSans-74"/>
      <use x="469.388672" xlink:href="#DejaVuSans-79"/>
      <use x="528.568359" xlink:href="#DejaVuSans-20"/>
      <use x="560.355469" xlink:href="#DejaVuSans-64"/>
      <use x="623.832031" xlink:href="#DejaVuSans-65"/>
      <use x="685.355469" xlink:href="#DejaVuSans-6e"/>
      <use x="748.734375" xlink:href="#DejaVuSans-73"/>
      <use x="800.833984" xlink:href="#DejaVuSans-69"/>
      <use x="828.617188" xlink:href="#DejaVuSans-74"/>
      <use x="867.826172" xlink:href="#DejaVuSans-79"/>
     </g>
    </g>
   </g>
   <g id="line2d_16">
    <path clip-path="url(#pe0626a3a13)" d="M 60.013977 273.312 
L 79.837728 229.058325 
L 90.237073 206.391305 
L 99.01152 187.78358 
L 106.811029 171.756639 
L 113.960578 157.571051 
L 120.460169 145.153868 
L 126.63478 133.826227 
L 132.484411 123.553357 
L 138.009063 114.291147 
L 143.208736 105.988388 
L 148.408408 98.109149 
L 153.283101 91.124756 
L 157.832814 84.971371 
L 162.382528 79.182992 
L 166.607261 74.144713 
L 170.831995 69.439257 
L 175.056729 65.074487 
L 178.956483 61.35417 
L 182.856238 57.935659 
L 186.755992 54.823824 
L 190.330767 52.244505 
L 193.905542 49.929692 
L 197.480316 47.882155 
L 201.055091 46.104344 
L 204.304886 44.724007 
L 207.554682 43.569711 
L 210.804477 42.642598 
L 214.054272 41.943582 
L 217.304067 41.473357 
L 220.553863 41.232387 
L 223.803658 41.22091 
L 227.053453 41.438938 
L 230.303248 41.886255 
L 233.553044 42.562418 
L 236.802839 43.46676 
L 240.052634 44.598385 
L 243.302429 45.956175 
L 246.552225 47.538788 
L 250.126999 49.537456 
L 253.701774 51.80387 
L 257.276549 54.335317 
L 260.851324 57.128769 
L 264.751078 60.47105 
L 268.650832 64.116395 
L 272.550587 68.059615 
L 276.77532 72.661056 
L 281.000054 77.597798 
L 285.549768 83.279799 
L 290.099481 89.330083 
L 294.974174 96.207876 
L 299.848867 103.479671 
L 305.048539 111.652289 
L 310.248212 120.23409 
L 315.772863 129.776285 
L 321.622495 140.326213 
L 327.797106 151.923698 
L 334.296696 164.598807 
L 341.446246 179.035981 
L 349.245755 195.29762 
L 358.020202 214.118186 
L 368.419546 236.965272 
L 383.693584 271.122217 
L 384.668523 273.312 
L 384.668523 273.312 
" style="fill:none;stroke:#ff7f0e;stroke-linecap:square;stroke-width:1.5;"/>
   </g>
   <g id="patch_203">
    <path d="M 43.78125 273.312 
L 43.78125 7.2 
" style="fill:none;stroke:#000000;stroke-linecap:square;stroke-linejoin:miter;stroke-width:0.8;"/>
   </g>
   <g id="patch_204">
    <path d="M 400.90125 273.312 
L 400.90125 7.2 
" style="fill:none;stroke:#000000;stroke-linecap:square;stroke-linejoin:miter;stroke-width:0.8;"/>
   </g>
   <g id="patch_205">
    <path d="M 43.78125 273.312 
L 400.90125 273.312 
" style="fill:none;stroke:#000000;stroke-linecap:square;stroke-linejoin:miter;stroke-width:0.8;"/>
   </g>
   <g id="patch_206">
    <path d="M 43.78125 7.2 
L 400.90125 7.2 
" style="fill:none;stroke:#000000;stroke-linecap:square;stroke-linejoin:miter;stroke-width:0.8;"/>
   </g>
  </g>
 </g>
 <defs>
  <clipPath id="pe0626a3a13">
   <rect height="266.112" width="357.12" x="43.78125" y="7.2"/>
  </clipPath>
 </defs>
</svg>
